<svg width="24" height="24" viewBox="0 0 24 24" fill="none" xmlns="http://www.w3.org/2000/svg">
<path d="M4.5 12.375C4.5 8.02576 8.02576 4.5 12.375 4.5C16.7242 4.5 20.25 8.02576 20.25 12.375C20.25 16.7242 16.7242 20.25 12.375 20.25C8.02576 20.25 4.5 16.7242 4.5 12.375Z" fill="#583FF5"/>
<path fill-rule="evenodd" clip-rule="evenodd" d="M3.82422 12.3742C3.82422 7.65218 7.65218 3.82422 12.3742 3.82422C17.0963 3.82422 20.9242 7.65218 20.9242 12.3742C20.9242 17.0963 17.0963 20.9242 12.3742 20.9242C7.65218 20.9242 3.82422 17.0963 3.82422 12.3742ZM12.3742 5.17422C8.39777 5.17422 5.17422 8.39777 5.17422 12.3742C5.17422 16.3507 8.39777 19.5742 12.3742 19.5742C16.3507 19.5742 19.5742 16.3507 19.5742 12.3742C19.5742 8.39777 16.3507 5.17422 12.3742 5.17422Z" fill="#583FF5"/>
<path fill-rule="evenodd" clip-rule="evenodd" d="M15.602 10.1313C15.8656 10.3949 15.8656 10.8223 15.602 11.0859L11.8683 14.8195C11.6047 15.0831 11.1774 15.0831 10.9138 14.8195L9.64106 13.5468C9.37746 13.2832 9.37746 12.8558 9.64106 12.5922C9.90467 12.3286 10.3321 12.3286 10.5957 12.5922L11.3911 13.3876L14.6474 10.1313C14.911 9.86769 15.3384 9.86769 15.602 10.1313Z" fill="white"/>
</svg>
