<svg width="32" height="36" viewBox="0 0 32 36" fill="none" xmlns="http://www.w3.org/2000/svg">
<g filter="url(#filter0_d_2627_16306)">
<path fill-rule="evenodd" clip-rule="evenodd" d="M16.8068 6.99346C16.6256 6.87093 16.3736 6.87093 16.1925 6.99346L7.09245 13.1475C6.96044 13.2367 6.89961 13.3669 6.89961 13.487V25.0045C6.89961 25.5683 7.39372 26.1016 8.09961 26.1016H24.8996C25.6055 26.1016 26.0996 25.5683 26.0996 25.0045V13.487C26.0996 13.3669 26.0388 13.2367 25.9068 13.1475L16.8068 6.99346ZM15.1841 5.5024C15.9744 4.96795 17.0248 4.96795 17.8151 5.5024L26.9151 11.6564C27.5217 12.0666 27.8996 12.7451 27.8996 13.487V25.0045C27.8996 26.6466 26.5133 27.9016 24.8996 27.9016H8.09961C6.4859 27.9016 5.09961 26.6466 5.09961 25.0045V13.487C5.09961 12.7451 5.47749 12.0666 6.0841 11.6564L15.1841 5.5024ZM10.3496 22.4078C10.3496 21.9108 10.7526 21.5078 11.2496 21.5078H21.7496C22.2467 21.5078 22.6496 21.9108 22.6496 22.4078C22.6496 22.9049 22.2467 23.3078 21.7496 23.3078H11.2496C10.7526 23.3078 10.3496 22.9049 10.3496 22.4078Z" fill="#151515"/>
</g>
<defs>
<filter id="filter0_d_2627_16306" x="-4" y="0" width="40" height="40" filterUnits="userSpaceOnUse" color-interpolation-filters="sRGB">
<feFlood flood-opacity="0" result="BackgroundImageFix"/>
<feColorMatrix in="SourceAlpha" type="matrix" values="0 0 0 0 0 0 0 0 0 0 0 0 0 0 0 0 0 0 127 0" result="hardAlpha"/>
<feOffset dy="4"/>
<feGaussianBlur stdDeviation="2"/>
<feComposite in2="hardAlpha" operator="out"/>
<feColorMatrix type="matrix" values="0 0 0 0 0 0 0 0 0 0 0 0 0 0 0 0 0 0 0.25 0"/>
<feBlend mode="normal" in2="BackgroundImageFix" result="effect1_dropShadow_2627_16306"/>
<feBlend mode="normal" in="SourceGraphic" in2="effect1_dropShadow_2627_16306" result="shape"/>
</filter>
</defs>
</svg>
