<svg width="32" height="32" viewBox="0 0 32 32" fill="none" xmlns="http://www.w3.org/2000/svg">
<path fill-rule="evenodd" clip-rule="evenodd" d="M18.4557 7.53565C17.9569 5.48812 15.0431 5.48812 14.5443 7.53565C14.4698 7.84332 14.3238 8.12907 14.118 8.36964C13.9123 8.61021 13.6526 8.79879 13.3602 8.92006C13.0678 9.04132 12.7509 9.09183 12.4352 9.06748C12.1196 9.04313 11.8142 8.9446 11.5438 8.77992C9.74304 7.68265 7.68235 9.74331 8.77963 11.5441C9.48841 12.707 8.8597 14.2243 7.53666 14.5458C5.48778 15.0433 5.48778 17.9584 7.53666 18.4545C7.84442 18.5291 8.13022 18.6753 8.37079 18.8812C8.61136 19.0871 8.7999 19.3469 8.92105 19.6395C9.04219 19.932 9.09253 20.2491 9.06796 20.5648C9.04338 20.8805 8.94459 21.1859 8.77963 21.4562C7.68235 23.257 9.74304 25.3177 11.5438 24.2204C11.8141 24.0555 12.1196 23.9567 12.4353 23.9321C12.751 23.9075 13.0681 23.9579 13.3606 24.079C13.6532 24.2001 13.913 24.3887 14.119 24.6292C14.3249 24.8698 14.4711 25.1556 14.5456 25.4634C15.0431 27.5122 17.9582 27.5122 18.4544 25.4634C18.5292 25.1558 18.6755 24.8702 18.8815 24.6298C19.0874 24.3894 19.3472 24.201 19.6397 24.0798C19.9322 23.9587 20.2491 23.9083 20.5648 23.9328C20.8804 23.9572 21.1858 24.0557 21.4562 24.2204C23.257 25.3177 25.3176 23.257 24.2204 21.4562C24.0557 21.1859 23.9571 20.8805 23.9327 20.5649C23.9083 20.2492 23.9587 19.9323 24.0798 19.6398C24.2009 19.3473 24.3893 19.0876 24.6297 18.8816C24.8701 18.6756 25.1557 18.5293 25.4633 18.4545C27.5122 17.9571 27.5122 15.042 25.4633 14.5458C25.1556 14.4713 24.8698 14.3251 24.6292 14.1192C24.3886 13.9132 24.2001 13.6534 24.079 13.3609C23.9578 13.0683 23.9075 12.7512 23.932 12.4355C23.9566 12.1198 24.0554 11.8144 24.2204 11.5441C25.3176 9.74331 23.257 7.68265 21.4562 8.77992C21.1858 8.94488 20.8804 9.04367 20.5647 9.06824C20.249 9.09281 19.9319 9.04248 19.6394 8.92133C19.3468 8.80018 19.087 8.61165 18.881 8.37108C18.6751 8.13052 18.5289 7.84472 18.4544 7.53696L18.4557 7.53565Z" stroke="#262627" stroke-width="1.8"/>
<path d="M18.8333 16.5C18.8333 17.7887 17.7887 18.8333 16.5 18.8333C15.2113 18.8333 14.1667 17.7887 14.1667 16.5C14.1667 15.2113 15.2113 14.1667 16.5 14.1667C17.7887 14.1667 18.8333 15.2113 18.8333 16.5Z" stroke="#262627" stroke-width="1.8"/>
</svg>
