<svg width="32" height="32" viewBox="0 0 32 32" fill="none" xmlns="http://www.w3.org/2000/svg">
<path fill-rule="evenodd" clip-rule="evenodd" d="M5.36321 5.36321C5.71469 5.01174 6.28453 5.01174 6.63601 5.36321L15.9996 14.7268L25.3632 5.36322C25.7147 5.01175 26.2845 5.01175 26.636 5.36322C26.9875 5.71469 26.9875 6.28454 26.636 6.63601L17.2724 15.9996L26.636 25.3632C26.9875 25.7147 26.9875 26.2845 26.636 26.636C26.2845 26.9875 25.7147 26.9875 25.3632 26.636L15.9996 17.2724L6.63601 26.636C6.28453 26.9875 5.71469 26.9875 5.36321 26.636C5.01174 26.2845 5.01174 25.7147 5.36321 25.3632L14.7268 15.9996L5.36321 6.63601C5.01174 6.28453 5.01174 5.71469 5.36321 5.36321Z" fill="#151515"/>
</svg>
