<svg width="32" height="32" viewBox="0 0 32 32" fill="none" xmlns="http://www.w3.org/2000/svg">
<path d="M25.3077 11.8811H21.5973C21.6386 11.8464 21.6809 11.8128 21.7211 11.7761C22.0423 11.4928 22.3012 11.1467 22.4815 10.7596C22.6619 10.3724 22.7598 9.95251 22.7692 9.52607C22.7831 9.05956 22.7008 8.59515 22.5274 8.16136C22.3539 7.72757 22.093 7.33355 21.7606 7.00348C21.4282 6.67341 21.0313 6.41427 20.5943 6.24196C20.1574 6.06965 19.6896 5.98781 19.2196 6.00147C18.7898 6.01065 18.3666 6.10781 17.9764 6.28684C17.5862 6.46588 17.2374 6.72294 16.9519 7.04194C16.5569 7.49645 16.2357 8.00939 16 8.56224C15.7643 8.00939 15.4431 7.49645 15.0481 7.04194C14.7626 6.72294 14.4138 6.46588 14.0236 6.28684C13.6334 6.10781 13.2102 6.01065 12.7804 6.00147C12.3104 5.98781 11.8426 6.06965 11.4057 6.24196C10.9687 6.41427 10.5718 6.67341 10.2394 7.00348C9.90703 7.33355 9.64609 7.72757 9.47263 8.16136C9.29918 8.59515 9.21688 9.05956 9.23077 9.52607C9.24017 9.95251 9.33811 10.3724 9.51847 10.7596C9.69882 11.1467 9.95771 11.4928 10.2789 11.7761C10.3191 11.8107 10.3614 11.8443 10.4027 11.8811H6.69231C6.24348 11.8811 5.81303 12.058 5.49567 12.3731C5.1783 12.6881 5 13.1154 5 13.5609V16.9207C5 17.3662 5.1783 17.7935 5.49567 18.1086C5.81303 18.4236 6.24348 18.6006 6.69231 18.6006V25.3201C6.69231 25.7656 6.8706 26.1929 7.18797 26.508C7.50534 26.823 7.93579 27 8.38462 27H23.6154C24.0642 27 24.4947 26.823 24.812 26.508C25.1294 26.1929 25.3077 25.7656 25.3077 25.3201V18.6006C25.7565 18.6006 26.187 18.4236 26.5043 18.1086C26.8217 17.7935 27 17.3662 27 16.9207V13.5609C27 13.1154 26.8217 12.6881 26.5043 12.3731C26.187 12.058 25.7565 11.8811 25.3077 11.8811ZM18.2212 8.15487C18.3551 8.008 18.5182 7.89022 18.7003 7.80891C18.8823 7.72761 19.0793 7.68454 19.2788 7.6824H19.3307C19.5646 7.68385 19.7959 7.73164 20.011 7.82295C20.2261 7.91427 20.4206 8.04729 20.5832 8.2142C20.7459 8.38112 20.8733 8.57858 20.9581 8.79501C21.0429 9.01144 21.0833 9.24249 21.0769 9.47462C21.0748 9.67274 21.0314 9.86828 20.9495 10.049C20.8676 10.2296 20.7489 10.3916 20.601 10.5246C19.5972 11.4065 17.9313 11.7173 16.899 11.8265C17.026 10.7146 17.375 9.09875 18.2212 8.15487ZM11.4424 8.19266C11.7702 7.86728 12.2142 7.68352 12.6778 7.68135H12.7296C12.9292 7.68349 13.1262 7.72656 13.3082 7.80786C13.4902 7.88917 13.6533 8.00695 13.7873 8.15382C14.6747 9.14915 14.9878 10.7996 15.0978 11.8202C14.0697 11.7152 12.407 11.4002 11.4043 10.5193C11.2564 10.3863 11.1377 10.2244 11.0558 10.0437C10.9739 9.86303 10.9305 9.66749 10.9284 9.46937C10.9218 9.23339 10.9636 8.99854 11.0512 8.77907C11.1389 8.55961 11.2705 8.3601 11.4382 8.19266H11.4424ZM6.69231 13.5609H15.1538V16.9207H6.69231V13.5609ZM8.38462 18.6006H15.1538V25.3201H8.38462V18.6006ZM23.6154 25.3201H16.8462V18.6006H23.6154V25.3201ZM25.3077 16.9207H16.8462V13.5609H25.3077V16.9207Z" fill="#151515"/>
</svg>
