<svg width="41" height="20" viewBox="0 0 41 20" fill="none" xmlns="http://www.w3.org/2000/svg">
<rect width="41" height="20" rx="10" fill="#151515" fill-opacity="0.5"/>
<rect x="0.5" y="0.5" width="40" height="19" rx="9.5" stroke="white" stroke-opacity="0.5"/>
<path d="M9.8891 13.58V12.97L11.3291 11.47C11.9024 10.8633 12.3224 10.3667 12.5891 9.98C12.8558 9.58667 12.9891 9.18667 12.9891 8.78C12.9891 8.35333 12.8758 8.04333 12.6491 7.85C12.4291 7.65 12.0924 7.55 11.6391 7.55C11.1791 7.55 10.6958 7.71667 10.1891 8.05L9.9791 7.26C10.5858 6.88667 11.2191 6.7 11.8791 6.7C12.5924 6.7 13.1358 6.87333 13.5091 7.22C13.8891 7.56 14.0791 8.04 14.0791 8.66C14.0791 8.94667 14.0324 9.22333 13.9391 9.49C13.8458 9.75667 13.6924 10.0367 13.4791 10.33C13.2724 10.6233 13.0858 10.8633 12.9191 11.05C12.7591 11.23 12.5224 11.4867 12.2091 11.82L11.2891 12.74H14.1691V13.58H9.8891Z" fill="white"/>
<path d="M18.7868 14.62L21.1668 6.14H22.0468L19.6668 14.62H18.7868Z" fill="white"/>
<path d="M29.5938 13.63V12.24H26.5138V11.58L29.8238 6.75H30.5838V11.44H31.6438V12.24H30.5838V13.63H29.5938ZM27.5838 11.44H29.6038V8.48L27.5838 11.44Z" fill="white"/>
</svg>
