<svg width="41" height="20" viewBox="0 0 41 20" fill="none" xmlns="http://www.w3.org/2000/svg">
<rect width="41" height="20" rx="10" fill="#151515" fill-opacity="0.5"/>
<rect x="0.5" y="0.5" width="40" height="19" rx="9.5" stroke="white" stroke-opacity="0.5"/>
<path d="M11.6893 13.68C10.8893 13.68 10.256 13.52 9.78934 13.2L9.97934 12.43C10.1593 12.5433 10.396 12.64 10.6893 12.72C10.9893 12.8 11.266 12.84 11.5193 12.84C12.026 12.84 12.4127 12.7367 12.6793 12.53C12.946 12.3167 13.0793 12.0133 13.0793 11.62C13.0793 10.8667 12.576 10.4833 11.5693 10.47L10.9093 10.46V9.67L11.4993 9.66C11.9193 9.65333 12.2493 9.55667 12.4893 9.37C12.736 9.17667 12.8593 8.91 12.8593 8.57C12.8593 7.89 12.4393 7.55 11.5993 7.55C11.1993 7.55 10.7193 7.68667 10.1593 7.96L10.0293 7.17C10.2427 7.03667 10.5227 6.92667 10.8693 6.84C11.216 6.74667 11.546 6.7 11.8593 6.7C12.486 6.7 12.986 6.85 13.3593 7.15C13.7327 7.44333 13.9193 7.85667 13.9193 8.39C13.9193 9.16333 13.5027 9.69333 12.6693 9.98C13.6627 10.1733 14.1593 10.7333 14.1593 11.66C14.1593 12.2733 13.936 12.7633 13.4893 13.13C13.0427 13.4967 12.4427 13.68 11.6893 13.68Z" fill="white"/>
<path d="M18.7868 14.62L21.1668 6.14H22.0468L19.6668 14.62H18.7868Z" fill="white"/>
<path d="M29.5938 13.63V12.24H26.5138V11.58L29.8238 6.75H30.5838V11.44H31.6438V12.24H30.5838V13.63H29.5938ZM27.5838 11.44H29.6038V8.48L27.5838 11.44Z" fill="white"/>
</svg>
