<svg width="28" height="28" viewBox="0 0 28 28" fill="none" xmlns="http://www.w3.org/2000/svg">
<path d="M14 5.25C12.2694 5.25 10.5777 5.76318 9.13876 6.72464C7.69983 7.6861 6.57832 9.05267 5.91606 10.6515C5.25379 12.2504 5.08051 14.0097 5.41813 15.707C5.75575 17.4044 6.58911 18.9635 7.81282 20.1872C9.03653 21.4109 10.5956 22.2442 12.293 22.5819C13.9903 22.9195 15.7496 22.7462 17.3485 22.0839C18.9473 21.4217 20.3139 20.3002 21.2754 18.8612C22.2368 17.4223 22.75 15.7306 22.75 14C22.7475 11.6801 21.8249 9.45593 20.1845 7.81552C18.5441 6.17511 16.3199 5.25245 14 5.25ZM14 21.4038C12.5357 21.4038 11.1042 20.9696 9.88665 20.1561C8.66909 19.3425 7.72012 18.1862 7.15974 16.8333C6.59936 15.4805 6.45274 13.9918 6.73842 12.5556C7.0241 11.1194 7.72925 9.80014 8.76469 8.76469C9.80014 7.72924 11.1194 7.0241 12.5556 6.73842C13.9918 6.45274 15.4805 6.59936 16.8333 7.15974C18.1862 7.72012 19.3425 8.66909 20.1561 9.88664C20.9696 11.1042 21.4038 12.5357 21.4038 14C21.4016 15.9629 20.6209 17.8448 19.2329 19.2328C17.8448 20.6209 15.9629 21.4016 14 21.4038ZM17.3654 15.6827C17.3654 16.3075 17.1172 16.9067 16.6754 17.3485C16.2336 17.7903 15.6344 18.0385 15.0096 18.0385H14.6731V18.7115C14.6731 18.89 14.6022 19.0612 14.4759 19.1875C14.3497 19.3137 14.1785 19.3846 14 19.3846C13.8215 19.3846 13.6503 19.3137 13.5241 19.1875C13.3978 19.0612 13.3269 18.89 13.3269 18.7115V18.0385H11.9808C11.8023 18.0385 11.6311 17.9675 11.5048 17.8413C11.3786 17.7151 11.3077 17.5439 11.3077 17.3654C11.3077 17.1869 11.3786 17.0157 11.5048 16.8894C11.6311 16.7632 11.8023 16.6923 11.9808 16.6923H15.0096C15.2774 16.6923 15.5342 16.5859 15.7235 16.3966C15.9129 16.2073 16.0192 15.9505 16.0192 15.6827C16.0192 15.4149 15.9129 15.1581 15.7235 14.9688C15.5342 14.7794 15.2774 14.6731 15.0096 14.6731H12.9904C12.3656 14.6731 11.7664 14.4249 11.3246 13.9831C10.8828 13.5413 10.6346 12.9421 10.6346 12.3173C10.6346 11.6925 10.8828 11.0933 11.3246 10.6515C11.7664 10.2097 12.3656 9.96154 12.9904 9.96154H13.3269V9.28846C13.3269 9.10995 13.3978 8.93875 13.5241 8.81252C13.6503 8.6863 13.8215 8.61538 14 8.61538C14.1785 8.61538 14.3497 8.6863 14.4759 8.81252C14.6022 8.93875 14.6731 9.10995 14.6731 9.28846V9.96154H16.0192C16.1977 9.96154 16.3689 10.0325 16.4952 10.1587C16.6214 10.2849 16.6923 10.4561 16.6923 10.6346C16.6923 10.8131 16.6214 10.9843 16.4952 11.1106C16.3689 11.2368 16.1977 11.3077 16.0192 11.3077H12.9904C12.7226 11.3077 12.4658 11.4141 12.2765 11.6034C12.0871 11.7927 11.9808 12.0495 11.9808 12.3173C11.9808 12.5851 12.0871 12.8419 12.2765 13.0312C12.4658 13.2206 12.7226 13.3269 12.9904 13.3269H15.0096C15.6344 13.3269 16.2336 13.5751 16.6754 14.0169C17.1172 14.4587 17.3654 15.0579 17.3654 15.6827Z" fill="#262627"/>
</svg>
