<svg width="32" height="32" viewBox="0 0 32 32" fill="none" xmlns="http://www.w3.org/2000/svg">
<path d="M16 6C14.0222 6 12.0888 6.58649 10.4443 7.6853C8.79981 8.78412 7.51809 10.3459 6.76121 12.1732C6.00433 14.0004 5.8063 16.0111 6.19215 17.9509C6.578 19.8907 7.53041 21.6725 8.92894 23.0711C10.3275 24.4696 12.1093 25.422 14.0491 25.8078C15.9889 26.1937 17.9996 25.9957 19.8268 25.2388C21.6541 24.4819 23.2159 23.2002 24.3147 21.5557C25.4135 19.9112 26 17.9778 26 16C25.9972 13.3487 24.9427 10.8068 23.068 8.93202C21.1932 7.05727 18.6513 6.0028 16 6ZM16 24.4615C14.3265 24.4615 12.6905 23.9653 11.299 23.0355C9.90753 22.1057 8.823 20.7842 8.18256 19.2381C7.54213 17.6919 7.37456 15.9906 7.70105 14.3492C8.02754 12.7079 8.83343 11.2002 10.0168 10.0168C11.2002 8.83342 12.7079 8.02754 14.3492 7.70105C15.9906 7.37456 17.6919 7.54212 19.2381 8.18256C20.7842 8.82299 22.1057 9.90753 23.0355 11.299C23.9653 12.6905 24.4615 14.3265 24.4615 16C24.459 18.2434 23.5667 20.3941 21.9804 21.9804C20.3941 23.5667 18.2434 24.459 16 24.4615ZM19.8462 17.9231C19.8462 18.6371 19.5625 19.3219 19.0576 19.8268C18.5527 20.3317 17.8679 20.6154 17.1538 20.6154H16.7692V21.3846C16.7692 21.5886 16.6882 21.7843 16.5439 21.9285C16.3997 22.0728 16.204 22.1538 16 22.1538C15.796 22.1538 15.6003 22.0728 15.4561 21.9285C15.3118 21.7843 15.2308 21.5886 15.2308 21.3846V20.6154H13.6923C13.4883 20.6154 13.2926 20.5343 13.1484 20.3901C13.0041 20.2458 12.9231 20.0502 12.9231 19.8462C12.9231 19.6421 13.0041 19.4465 13.1484 19.3022C13.2926 19.158 13.4883 19.0769 13.6923 19.0769H17.1538C17.4599 19.0769 17.7534 18.9554 17.9697 18.739C18.1861 18.5226 18.3077 18.2291 18.3077 17.9231C18.3077 17.6171 18.1861 17.3236 17.9697 17.1072C17.7534 16.8908 17.4599 16.7692 17.1538 16.7692H14.8462C14.1321 16.7692 13.4473 16.4856 12.9424 15.9807C12.4375 15.4758 12.1538 14.791 12.1538 14.0769C12.1538 13.3629 12.4375 12.6781 12.9424 12.1732C13.4473 11.6683 14.1321 11.3846 14.8462 11.3846H15.2308V10.6154C15.2308 10.4114 15.3118 10.2157 15.4561 10.0715C15.6003 9.9272 15.796 9.84615 16 9.84615C16.204 9.84615 16.3997 9.9272 16.5439 10.0715C16.6882 10.2157 16.7692 10.4114 16.7692 10.6154V11.3846H18.3077C18.5117 11.3846 18.7074 11.4657 18.8516 11.6099C18.9959 11.7542 19.0769 11.9498 19.0769 12.1538C19.0769 12.3579 18.9959 12.5535 18.8516 12.6978C18.7074 12.842 18.5117 12.9231 18.3077 12.9231H14.8462C14.5401 12.9231 14.2467 13.0446 14.0303 13.261C13.8139 13.4774 13.6923 13.7709 13.6923 14.0769C13.6923 14.3829 13.8139 14.6764 14.0303 14.8928C14.2467 15.1092 14.5401 15.2308 14.8462 15.2308H17.1538C17.8679 15.2308 18.5527 15.5144 19.0576 16.0193C19.5625 16.5242 19.8462 17.209 19.8462 17.9231Z" fill="#151515"/>
</svg>
