<svg width="32" height="32" viewBox="0 0 32 32" fill="none" xmlns="http://www.w3.org/2000/svg">
<path d="M24.4473 11.3573C24.5318 11.2728 24.632 11.2058 24.7424 11.1601C24.8527 11.1144 24.971 11.0909 25.0904 11.0909C25.2099 11.0909 25.3282 11.1144 25.4385 11.1601C25.5489 11.2058 25.6491 11.2728 25.7336 11.3573C25.8181 11.4417 25.8851 11.542 25.9308 11.6524C25.9765 11.7627 26 11.881 26 12.0004C26 12.1198 25.9765 12.2381 25.9308 12.3485C25.8851 12.4588 25.8181 12.5591 25.7336 12.6435L16.6431 21.7334C16.5587 21.8179 16.4585 21.885 16.3481 21.9307C16.2378 21.9765 16.1195 22 16 22C15.8805 22 15.7622 21.9765 15.6519 21.9307C15.5415 21.885 15.4413 21.8179 15.3568 21.7334L6.2664 12.6435C6.09583 12.473 6 12.2416 6 12.0004C6 11.7592 6.09583 11.5279 6.2664 11.3573C6.43697 11.1867 6.66832 11.0909 6.90955 11.0909C7.15078 11.0909 7.38213 11.1867 7.5527 11.3573L16 19.8052L24.4473 11.3573Z" fill="#151515"/>
</svg>
