<svg width="20" height="20" viewBox="0 0 20 20" fill="none" xmlns="http://www.w3.org/2000/svg">
<path fill-rule="evenodd" clip-rule="evenodd" d="M6.11633 4.86005L5.07049 5.90375C4.90128 6.07262 4.81547 6.25682 4.79489 6.49513C4.75707 6.95767 4.83904 7.47559 5.1095 8.19823L5.11004 8.19968C5.55159 9.39031 6.22137 10.5103 7.24401 11.7406C8.47208 13.2032 9.94724 14.3549 11.626 15.1661C12.2531 15.4653 13.0297 15.7849 13.842 15.8368L13.8434 15.8369C13.8695 15.8386 13.9013 15.8388 13.951 15.8388C14.2917 15.8388 14.5187 15.7388 14.7262 15.5205C14.8428 15.3856 15.0948 15.1294 15.3023 14.9213C15.4129 14.8103 15.5174 14.7065 15.5941 14.6306L15.6453 14.58C15.6624 14.5332 15.6807 14.474 15.6925 14.413C15.7055 14.3456 15.7064 14.297 15.7023 14.2687C15.7021 14.2675 15.7018 14.2655 15.7018 14.2655L14.0078 12.5749C14.0022 12.5693 13.9967 12.5635 13.9913 12.5577C13.9701 12.5345 13.9476 12.5162 13.9298 12.506L13.9282 12.5051C13.9253 12.5065 13.9217 12.5084 13.9175 12.5107C13.8916 12.5254 13.8606 12.5498 13.8293 12.5811L13.2243 13.1848C13.2231 13.186 13.2218 13.1873 13.2204 13.1887C13.1511 13.2582 12.8609 13.5487 12.3893 13.5487C12.1969 13.5487 12.0194 13.5005 11.8524 13.4172C11.8344 13.4082 11.8198 13.3998 11.8104 13.3942C11.8043 13.3906 11.7987 13.3872 11.795 13.3849C11.7878 13.3809 11.7808 13.3768 11.7739 13.3725C11.7086 13.332 11.6265 13.2906 11.5098 13.2324L11.5021 13.2285C11.3829 13.1691 11.2334 13.0945 11.0845 13.0002L11.085 13.0006C10.0444 12.3438 9.10873 11.492 8.23009 10.4144C8.22356 10.407 8.21725 10.3994 8.21115 10.3917C7.72241 9.77242 7.38486 9.23221 7.14224 8.64566C7.13763 8.63451 7.13341 8.62321 7.12959 8.61176L7.12033 8.58404L7.11778 8.57621C7.08238 8.46433 7.03049 8.27245 7.05697 8.04413C7.08411 7.81017 7.1879 7.58089 7.38464 7.37606C7.41059 7.34622 7.43269 7.32732 7.4418 7.31953L7.44358 7.31801C7.51204 7.25677 7.55459 7.22004 7.58408 7.19554C7.59669 7.18507 7.60677 7.17695 7.61528 7.17024C7.61665 7.16885 7.61818 7.1673 7.61989 7.16556C7.62969 7.15558 7.64159 7.14338 7.65783 7.12673C7.67777 7.10628 7.70427 7.07912 7.74149 7.04109C7.74503 7.03748 7.74862 7.03391 7.75227 7.0304C7.80772 6.97696 7.85857 6.92561 7.91428 6.86935C7.94463 6.8387 7.97642 6.80659 8.0112 6.77189C8.06729 6.71591 8.09079 6.67951 8.10017 6.66122C8.09079 6.64293 8.06729 6.60652 8.0112 6.55054L7.163 5.70409C7.11537 5.65506 7.06756 5.60651 7.01848 5.55676L7.01804 5.55631C6.96928 5.50689 6.91921 5.45613 6.86968 5.40511C6.6824 5.21208 6.51081 5.03806 6.33256 4.87184C6.32828 4.86785 6.32407 4.86378 6.31993 4.85965L6.31067 4.85041C6.28417 4.82397 6.25892 4.80459 6.23855 4.79345C6.23256 4.79017 6.22819 4.78824 6.22531 4.78713C6.21306 4.79069 6.17622 4.80505 6.11633 4.86005ZM16.5576 15.0848L16.5498 15.1013C16.5239 15.1548 16.489 15.2034 16.4466 15.2451L16.4133 15.2779L16.323 15.367C16.2474 15.4419 16.1447 15.5439 16.0362 15.6528C15.8112 15.8785 15.5853 16.1097 15.5059 16.203C15.5006 16.2093 15.4951 16.2154 15.4894 16.2215C15.0755 16.6632 14.5692 16.875 13.951 16.875H13.9456C13.9026 16.875 13.8384 16.875 13.7746 16.8708C12.7547 16.8054 11.8286 16.411 11.1785 16.1007L11.1763 16.0996C9.36225 15.2232 7.77032 13.9792 6.44957 12.4058L6.44799 12.4039C5.36643 11.103 4.62917 9.88273 4.13878 8.5607L4.13905 8.56143L4.13851 8.55998L4.13878 8.5607C3.83557 7.75034 3.7077 7.07365 3.76226 6.40937L3.76241 6.40757C3.80369 5.92559 3.99564 5.51252 4.33855 5.17031L5.39096 4.12005C5.39482 4.1162 5.39874 4.11241 5.40272 4.10868C5.61333 3.91137 5.89426 3.75 6.22604 3.75C6.62798 3.75 6.91149 3.98612 7.04261 4.11697L7.04574 4.1201C7.24156 4.30303 7.42603 4.49049 7.61317 4.68337M16.5576 15.0848C16.5855 15.0206 16.5498 15.1013 16.5498 15.1013L16.5501 15.1007L16.5504 15.1001L16.5511 15.0987L16.5528 15.095L16.5576 15.0848C16.5613 15.0768 16.5661 15.0662 16.5716 15.0534C16.5828 15.0277 16.5973 14.9926 16.6132 14.95C16.6444 14.8663 16.6834 14.7467 16.7099 14.6095C16.7551 14.3757 16.8008 13.8961 16.4458 13.5441L16.4446 13.5429L14.7471 11.8489C14.6096 11.7013 14.327 11.4653 13.9293 11.4653C13.5202 11.4653 13.2256 11.7197 13.0974 11.8476L12.4924 12.4514C12.4718 12.4719 12.4564 12.4862 12.4363 12.4981C12.4187 12.5085 12.4049 12.5125 12.3893 12.5125C12.3791 12.5125 12.3621 12.5116 12.328 12.4962C12.3255 12.4947 12.3228 12.4931 12.32 12.4914C12.3162 12.4891 12.3115 12.4864 12.306 12.4833C12.1995 12.4185 12.0821 12.3599 11.9828 12.3104L11.9725 12.3052C11.8459 12.2421 11.7395 12.1885 11.6386 12.1247L11.638 12.1243C10.7017 11.5334 9.84462 10.7572 9.02286 9.74691C9.01967 9.743 9.01643 9.73913 9.01313 9.73531C8.57545 9.17898 8.30014 8.72905 8.10651 8.26587L8.10459 8.26011C8.08552 8.199 8.08499 8.17446 8.08625 8.16352C8.08666 8.16006 8.08749 8.15534 8.09161 8.14704C8.09597 8.13824 8.10785 8.11776 8.13819 8.08748C8.13978 8.08589 8.14136 8.0843 8.14293 8.08269C8.20138 8.03051 8.23121 8.00504 8.24614 7.99263C8.2533 7.98669 8.25686 7.98389 8.25869 7.98246L8.2651 7.97749C8.2683 7.97501 8.27435 7.97029 8.28143 7.96449C8.31296 7.93867 8.3386 7.91256 8.35702 7.8938L8.35911 7.89167C8.36892 7.88167 8.38262 7.86764 8.40062 7.84919C8.42055 7.82875 8.44577 7.80291 8.47684 7.77115C8.53889 7.7112 8.60287 7.64662 8.66218 7.58676C8.69047 7.55821 8.71769 7.53073 8.74314 7.50533C8.95592 7.29299 9.14062 7.01159 9.14062 6.66122C9.14062 6.31084 8.95592 6.02944 8.74314 5.8171L7.90338 4.97906C7.85397 4.92824 7.80479 4.87839 7.75749 4.83043L7.75569 4.82861C7.70649 4.77874 7.65928 4.73088 7.61317 4.68337" fill="#7F7F7F"/>
</svg>
