<svg width="24" height="24" viewBox="0 0 24 24" fill="none" xmlns="http://www.w3.org/2000/svg">
<path d="M18.4795 10.2292C19.0738 10.5715 19.5558 11.0793 19.8665 11.6908C20.1773 12.3023 20.3033 12.9909 20.2294 13.6728C20.1555 14.3547 19.8847 15.0004 19.4501 15.531C19.0156 16.0617 18.436 16.4544 17.7821 16.6613C17.5509 17.7102 16.9686 18.6486 16.1313 19.3213C15.2941 19.994 14.2523 20.3606 13.1783 20.3604H11.4112C11.255 20.3604 11.1052 20.2983 10.9947 20.1879C10.8842 20.0774 10.8222 19.9276 10.8222 19.7714C10.8222 19.6152 10.8842 19.4653 10.9947 19.3549C11.1052 19.2444 11.255 19.1824 11.4112 19.1824H13.1783C13.9094 19.1826 14.6226 18.9561 15.2197 18.5342C15.8167 18.1122 16.2683 17.5155 16.5121 16.8263H16.1234C15.9672 16.8263 15.8173 16.7642 15.7069 16.6537C15.5964 16.5433 15.5344 16.3935 15.5344 16.2372V10.347C15.5344 10.1908 15.5964 10.041 15.7069 9.93053C15.8173 9.82007 15.9672 9.75801 16.1234 9.75801H16.7124C16.9032 9.75801 17.0906 9.77333 17.2743 9.80278C17.1417 8.4962 16.5288 7.28536 15.5544 6.40486C14.5801 5.52436 13.3135 5.03688 12.0002 5.03688C10.6869 5.03688 9.4204 5.52436 8.44601 6.40486C7.47162 7.28536 6.85875 8.4962 6.72614 9.80278C6.91196 9.773 7.09986 9.75803 7.28806 9.75801H7.87708C8.0333 9.75801 8.18312 9.82007 8.29358 9.93053C8.40405 10.041 8.4661 10.1908 8.4661 10.347V16.2372C8.4661 16.3935 8.40405 16.5433 8.29358 16.6537C8.18312 16.7642 8.0333 16.8263 7.87708 16.8263H7.28806C6.50936 16.8271 5.75216 16.5708 5.13413 16.0971C4.51609 15.6233 4.07182 14.9587 3.87035 14.2065C3.66887 13.4544 3.72146 12.6567 4.01995 11.9375C4.31844 11.2182 4.84612 10.6177 5.521 10.2292C5.521 8.51083 6.20363 6.86281 7.41872 5.64772C8.63381 4.43263 10.2818 3.75 12.0002 3.75C13.7186 3.75 15.3666 4.43263 16.5817 5.64772C17.7968 6.86281 18.4795 8.51083 18.4795 10.2292ZM7.28806 10.9361C6.66319 10.9361 6.06391 11.1843 5.62206 11.6261C5.18021 12.068 4.93198 12.6673 4.93198 13.2921C4.93198 13.917 5.18021 14.5163 5.62206 14.9581C6.06391 15.4 6.66319 15.6482 7.28806 15.6482V10.9361ZM19.0685 13.2921C19.0685 12.6673 18.8203 12.068 18.3784 11.6261C17.9366 11.1843 17.3373 10.9361 16.7124 10.9361V15.6482C17.3373 15.6482 17.9366 15.4 18.3784 14.9581C18.8203 14.5163 19.0685 13.917 19.0685 13.2921Z" fill="#583FF5"/>
</svg>
