<svg width="24" height="24" viewBox="0 0 24 24" fill="none" xmlns="http://www.w3.org/2000/svg">
<path d="M12 8.19231C11.2469 8.19231 10.5107 8.41563 9.88456 8.83402C9.25839 9.25241 8.77035 9.84709 8.48215 10.5429C8.19396 11.2386 8.11855 12.0042 8.26547 12.7428C8.41239 13.4815 8.77504 14.1599 9.30755 14.6924C9.84007 15.225 10.5185 15.5876 11.2572 15.7345C11.9958 15.8814 12.7614 15.806 13.4571 15.5178C14.1529 15.2297 14.7476 14.7416 15.166 14.1154C15.5844 13.4893 15.8077 12.7531 15.8077 12C15.8066 10.9905 15.4051 10.0226 14.6913 9.30871C13.9774 8.59486 13.0095 8.19336 12 8.19231ZM12 14.5385C11.4979 14.5385 11.0072 14.3896 10.5897 14.1107C10.1723 13.8317 9.8469 13.4353 9.65477 12.9714C9.46264 12.5076 9.41237 11.9972 9.51031 11.5048C9.60826 11.0124 9.85003 10.56 10.205 10.205C10.56 9.85003 11.0124 9.60826 11.5048 9.51031C11.9972 9.41237 12.5076 9.46264 12.9714 9.65477C13.4353 9.8469 13.8317 10.1723 14.1107 10.5897C14.3896 11.0072 14.5385 11.4979 14.5385 12C14.5385 12.6732 14.271 13.3189 13.795 13.795C13.3189 14.271 12.6732 14.5385 12 14.5385ZM15.8077 3.75H8.19231C7.01452 3.75126 5.88533 4.21969 5.05251 5.05251C4.21969 5.88533 3.75126 7.01452 3.75 8.19231V15.8077C3.75126 16.9855 4.21969 18.1147 5.05251 18.9475C5.88533 19.7803 7.01452 20.2487 8.19231 20.25H15.8077C16.9855 20.2487 18.1147 19.7803 18.9475 18.9475C19.7803 18.1147 20.2487 16.9855 20.25 15.8077V8.19231C20.2487 7.01452 19.7803 5.88533 18.9475 5.05251C18.1147 4.21969 16.9855 3.75126 15.8077 3.75ZM18.9808 15.8077C18.9808 16.6492 18.6465 17.4563 18.0514 18.0514C17.4563 18.6465 16.6492 18.9808 15.8077 18.9808H8.19231C7.35076 18.9808 6.54367 18.6465 5.9486 18.0514C5.35354 17.4563 5.01923 16.6492 5.01923 15.8077V8.19231C5.01923 7.35076 5.35354 6.54367 5.9486 5.9486C6.54367 5.35354 7.35076 5.01923 8.19231 5.01923H15.8077C16.6492 5.01923 17.4563 5.35354 18.0514 5.9486C18.6465 6.54367 18.9808 7.35076 18.9808 8.19231V15.8077ZM17.0769 7.875C17.0769 8.06327 17.0211 8.24732 16.9165 8.40386C16.8119 8.5604 16.6632 8.68241 16.4893 8.75446C16.3153 8.82651 16.1239 8.84536 15.9393 8.80863C15.7546 8.7719 15.585 8.68124 15.4519 8.54811C15.3188 8.41498 15.2281 8.24537 15.1914 8.06071C15.1546 7.87606 15.1735 7.68466 15.2455 7.51071C15.3176 7.33677 15.4396 7.1881 15.5961 7.0835C15.7527 6.97891 15.9367 6.92308 16.125 6.92308C16.3775 6.92308 16.6196 7.02337 16.7981 7.20189C16.9766 7.38041 17.0769 7.62253 17.0769 7.875Z" fill="#583FF5"/>
</svg>
