<svg width="24" height="24" viewBox="0 0 24 24" fill="none" xmlns="http://www.w3.org/2000/svg">
<path fill-rule="evenodd" clip-rule="evenodd" d="M12 5.1752C8.23061 5.17519 5.17495 8.23085 5.17495 12.0002C5.17495 15.7695 8.23061 18.8252 11.9999 18.8252C15.7693 18.8252 18.825 15.7695 18.825 12.0002C18.825 8.23085 15.7693 5.1752 12 5.1752ZM3.82495 12.0002C3.82495 7.48527 7.48502 3.82519 12 3.8252C16.5149 3.8252 20.1749 7.48527 20.1749 12.0002C20.1749 16.5151 16.5149 20.1752 11.9999 20.1752C7.48502 20.1752 3.82495 16.5151 3.82495 12.0002ZM12 8.51269C12.3727 8.51269 12.6749 8.8149 12.6749 9.1877V9.22065C12.6749 9.59345 12.3727 9.89565 12 9.89565C11.6272 9.89565 11.325 9.59345 11.325 9.22065V9.1877C11.325 8.8149 11.6272 8.51269 12 8.51269ZM12 11.3252C12.3727 11.3252 12.6749 11.6274 12.6749 12.0002V15.7502C12.6749 16.123 12.3727 16.4252 11.9999 16.4252C11.6272 16.4252 11.3249 16.123 11.3249 15.7502L11.325 12.0002C11.325 11.6274 11.6272 11.3252 12 11.3252Z" fill="#583FF5"/>
</svg>
