<svg width="20" height="20" viewBox="0 0 20 20" fill="none" xmlns="http://www.w3.org/2000/svg">
<path d="M15.625 9.07147V13.6961C15.625 14.0466 15.4933 14.3827 15.2589 14.6304C15.0245 14.8782 14.7065 15.0175 14.375 15.0175H5.625C5.29348 15.0175 4.97554 14.8782 4.74112 14.6304C4.5067 14.3827 4.375 14.0466 4.375 13.6961V9.07147H15.625ZM12.5 3.12549C12.6658 3.12549 12.8247 3.19509 12.9419 3.31899C13.0592 3.44289 13.125 3.61093 13.125 3.78615V4.44682H14.375C14.7065 4.44682 15.0245 4.58603 15.2589 4.83383C15.4933 5.08162 15.625 5.41771 15.625 5.76815V7.75014H4.375V5.76815C4.375 5.41771 4.5067 5.08162 4.74112 4.83383C4.97554 4.58603 5.29348 4.44682 5.625 4.44682H6.875V3.78615C6.875 3.61093 6.94085 3.44289 7.05806 3.31899C7.17527 3.19509 7.33424 3.12549 7.5 3.12549C7.66576 3.12549 7.82473 3.19509 7.94194 3.31899C8.05915 3.44289 8.125 3.61093 8.125 3.78615V4.44682H11.875V3.78615C11.875 3.61093 11.9408 3.44289 12.0581 3.31899C12.1753 3.19509 12.3342 3.12549 12.5 3.12549Z" fill="#7F7F7F"/>
</svg>
