<svg width="32" height="32" viewBox="0 0 32 32" fill="none" xmlns="http://www.w3.org/2000/svg">
<path d="M28 8.49918V13.4994C28 13.7204 27.9109 13.9324 27.7522 14.0887C27.5935 14.245 27.3783 14.3328 27.1539 14.3328H22.0771C21.8527 14.3328 21.6374 14.245 21.4788 14.0887C21.3201 13.9324 21.2309 13.7204 21.2309 13.4994C21.2309 13.2784 21.3201 13.0664 21.4788 12.9101C21.6374 12.7538 21.8527 12.666 22.0771 12.666H24.9751L22.1627 10.1284L22.1363 10.1034C20.9603 8.94554 19.4639 8.15464 17.8341 7.82951C16.2043 7.50438 14.5134 7.65944 12.9726 8.27531C11.4318 8.89119 10.1093 9.94058 9.17053 11.2924C8.23172 12.6442 7.71814 14.2385 7.69395 15.8761C7.66976 17.5137 8.13603 19.1221 9.03451 20.5002C9.93299 21.8784 11.2238 22.9652 12.7458 23.625C14.2678 24.2847 15.9534 24.4882 17.5921 24.2099C19.2308 23.9316 20.7499 23.1839 21.9597 22.0602C22.1228 21.9083 22.3405 21.8263 22.5649 21.8325C22.7894 21.8387 23.0021 21.9324 23.1564 22.093C23.3107 22.2537 23.3939 22.4681 23.3876 22.6892C23.3814 22.9102 23.2862 23.1198 23.1231 23.2717C21.242 25.0288 18.7467 26.0057 16.1541 26H16.0145C14.3516 25.9775 12.7197 25.5531 11.2623 24.7641C9.80494 23.975 8.56665 22.8454 7.65629 21.4746C6.74593 20.1038 6.19138 18.5338 6.04139 16.9024C5.89139 15.2711 6.15053 13.6285 6.79604 12.1189C7.44155 10.6093 8.45366 9.27899 9.74342 8.24489C11.0332 7.21078 12.5611 6.50454 14.1929 6.18823C15.8246 5.87192 17.5103 5.95523 19.1018 6.43084C20.6932 6.90645 22.1417 7.75979 23.3198 8.91586L26.3077 11.6035V8.49918C26.3077 8.27815 26.3969 8.06618 26.5556 7.90989C26.7142 7.75361 26.9295 7.66581 27.1539 7.66581C27.3783 7.66581 27.5935 7.75361 27.7522 7.90989C27.9109 8.06618 28 8.27815 28 8.49918Z" fill="#151515"/>
</svg>
