<svg width="32" height="32" viewBox="0 0 32 32" fill="none" xmlns="http://www.w3.org/2000/svg">
<path fill-rule="evenodd" clip-rule="evenodd" d="M23.2608 11.3496C21.7203 8.67463 18.9027 6.89961 15.6974 6.89961C10.8648 6.89961 6.90039 10.9475 6.90039 15.9996C6.90039 21.0517 10.8648 25.0996 15.6974 25.0996C19.5764 25.0996 22.8922 22.4963 24.0539 18.8513C24.2049 18.3777 24.7112 18.1162 25.1848 18.2671C25.6583 18.4181 25.9199 18.9243 25.7689 19.3979C24.3857 23.7378 20.4128 26.8996 15.6974 26.8996C9.81891 26.8996 5.10039 21.9932 5.10039 15.9996C5.10039 10.006 9.81891 5.09961 15.6974 5.09961C19.6346 5.09961 23.0574 7.30655 24.882 10.5593C25.0234 10.8114 25.0304 11.1024 24.9263 11.3496H25.1004V7.24961C25.1004 6.75255 25.5033 6.34961 26.0004 6.34961C26.4974 6.34961 26.9004 6.75255 26.9004 7.24961V12.2496C26.9004 12.7467 26.4974 13.1496 26.0004 13.1496H21.1519C20.6548 13.1496 20.2519 12.7467 20.2519 12.2496C20.2519 11.7526 20.6548 11.3496 21.1519 11.3496H23.2608Z" fill="#151515"/>
</svg>
