<svg width="28" height="28" viewBox="0 0 28 28" fill="none" xmlns="http://www.w3.org/2000/svg">
<path d="M22.7404 16.7284L18.4121 14.7889L18.4002 14.7834C18.1755 14.6873 17.9304 14.6488 17.687 14.6712C17.4436 14.6937 17.2097 14.7765 17.0064 14.9121C16.9825 14.9279 16.9595 14.945 16.9375 14.9635L14.7013 16.8699C13.2845 16.1818 11.8219 14.7301 11.1337 13.3318L13.0429 11.0615C13.0613 11.0386 13.0787 11.0156 13.0953 10.9908C13.228 10.788 13.3085 10.5556 13.3296 10.3142C13.3508 10.0728 13.3119 9.82991 13.2165 9.60715V9.59612L11.2715 5.2605C11.1454 4.96949 10.9286 4.72708 10.6534 4.56944C10.3782 4.41181 10.0594 4.3474 9.74457 4.38584C8.49962 4.54966 7.35688 5.16106 6.52977 6.10584C5.70267 7.05063 5.24776 8.26419 5.25001 9.51986C5.25001 16.8148 11.1852 22.75 18.4801 22.75C19.7358 22.7522 20.9493 22.2973 21.8941 21.4702C22.8389 20.6431 23.4503 19.5004 23.6141 18.2554C23.6526 17.9407 23.5884 17.622 23.4309 17.3468C23.2734 17.0716 23.0312 16.8547 22.7404 16.7284ZM18.4801 21.28C15.3622 21.2766 12.3729 20.0365 10.1682 17.8318C7.96352 15.627 6.72342 12.6378 6.72002 9.51986C6.71656 8.62269 7.03979 7.75492 7.62935 7.07864C8.2189 6.40235 9.03446 5.96378 9.92372 5.84483C9.92336 5.84849 9.92336 5.85219 9.92372 5.85585L11.8531 10.174L9.95404 12.447C9.93477 12.4692 9.91726 12.4929 9.90167 12.5178C9.76341 12.7299 9.68231 12.9742 9.66621 13.2269C9.65011 13.4796 9.69957 13.7322 9.8098 13.9602C10.6422 15.6627 12.3575 17.3651 14.0783 18.1966C14.308 18.3058 14.5621 18.3536 14.8157 18.3352C15.0693 18.3169 15.3138 18.233 15.5254 18.0919C15.549 18.076 15.5717 18.0588 15.5934 18.0404L17.8269 16.1349L22.145 18.0689C22.145 18.0689 22.1524 18.0689 22.1551 18.0689C22.0376 18.9594 21.5997 19.7766 20.9233 20.3677C20.2469 20.9587 19.3783 21.283 18.4801 21.28Z" fill="#262627"/>
</svg>
