<svg width="32" height="32" viewBox="0 0 32 32" fill="none" xmlns="http://www.w3.org/2000/svg">
<path d="M25.989 19.1182L21.0424 16.9017L21.0288 16.8954C20.772 16.7855 20.4918 16.7414 20.2137 16.7671C19.9356 16.7928 19.6683 16.8874 19.4359 17.0424C19.4085 17.0604 19.3823 17.0801 19.3572 17.1012L16.8014 19.2799C15.1823 18.4935 13.5107 16.8345 12.7243 15.2363L14.9062 12.6418C14.9272 12.6155 14.9471 12.5893 14.966 12.5609C15.1177 12.3292 15.2097 12.0635 15.2339 11.7877C15.258 11.5118 15.2136 11.2342 15.1046 10.9796V10.967L12.8818 6.012C12.7376 5.67942 12.4898 5.40238 12.1753 5.22222C11.8608 5.04206 11.4964 4.96846 11.1366 5.01239C9.71385 5.19961 8.40786 5.89835 7.4626 6.97811C6.51733 8.05786 5.99744 9.44479 6.00001 10.8798C6.00001 19.2169 12.7831 26 21.1201 26C22.5552 26.0026 23.9421 25.4827 25.0218 24.5374C26.1016 23.5921 26.8003 22.2861 26.9876 20.8633C27.0316 20.5037 26.9581 20.1394 26.7782 19.8249C26.5982 19.5104 26.3214 19.2625 25.989 19.1182ZM21.1201 24.32C17.5568 24.3161 14.1405 22.8988 11.6208 20.3792C9.10117 17.8595 7.68391 14.4432 7.68002 10.8798C7.67607 9.8545 8.04548 8.86277 8.71925 8.08987C9.39303 7.31697 10.3251 6.81574 11.3414 6.6798C11.341 6.68399 11.341 6.68821 11.3414 6.6924L13.5464 11.6275L11.376 14.2252C11.354 14.2505 11.334 14.2776 11.3162 14.306C11.1582 14.5485 11.0655 14.8277 11.0471 15.1165C11.0287 15.4053 11.0852 15.694 11.2112 15.9545C12.1625 17.9002 14.1229 19.8459 16.0895 20.7961C16.352 20.9209 16.6423 20.9755 16.9322 20.9545C17.2221 20.9335 17.5015 20.8377 17.7433 20.6764C17.7703 20.6583 17.7962 20.6386 17.821 20.6176L20.3736 18.4399L25.3086 20.6502C25.3086 20.6502 25.317 20.6502 25.3201 20.6502C25.1859 21.6679 24.6854 22.6019 23.9123 23.2773C23.1393 23.9528 22.1467 24.3234 21.1201 24.32Z" fill="#151515"/>
</svg>
