<svg width="32" height="32" viewBox="0 0 32 32" fill="none" xmlns="http://www.w3.org/2000/svg">
<path fill-rule="evenodd" clip-rule="evenodd" d="M20.3261 18.6746C20.6775 19.0261 21.2474 19.0261 21.5988 18.6746L24.0417 16.2317C25.1201 15.1533 25.7441 13.682 25.7327 12.1304C25.7214 10.5941 25.1165 9.11451 23.9857 8.01594C22.8904 6.92326 21.4161 6.31999 19.8814 6.30872C18.344 6.29742 16.8684 6.88149 15.7799 7.96993L13.337 10.4128C12.9856 10.7643 12.9856 11.3341 13.337 11.6856C13.6885 12.037 14.2584 12.037 14.6098 11.6856L17.0527 9.24274C17.789 8.50646 18.7964 8.10079 19.8682 8.10867C20.9405 8.11655 21.9621 8.53786 22.7179 9.29372L22.7279 9.3037C23.505 10.0569 23.9248 11.073 23.9327 12.1436C23.9405 13.2013 23.5151 14.2127 22.7689 14.959L20.3261 17.4018C19.9746 17.7533 19.9746 18.3231 20.3261 18.6746ZM17.2058 20.4624L14.763 22.9052C14.763 22.9052 14.763 22.9052 14.763 22.9052C14.0246 23.6435 13.0458 24.0474 11.9474 24.0393C10.8769 24.0314 9.86048 23.6117 9.10741 22.8346C9.10086 22.8278 9.09419 22.8211 9.08743 22.8146C8.31027 22.0614 7.89055 21.0452 7.88268 19.9746C7.87491 18.9169 8.30027 17.9055 9.0465 17.1592L11.4893 14.7164C11.8408 14.3649 11.8408 13.7951 11.4893 13.4436C11.1379 13.0921 10.568 13.0921 10.2165 13.4436L7.77371 15.8864C6.69527 16.9649 6.07133 18.4362 6.08273 19.9878C6.094 21.5218 6.69705 22.9993 7.82461 24.0973C8.92267 25.225 10.4004 25.828 11.9342 25.8392C13.5041 25.8508 14.9493 25.2644 16.0357 24.178L18.4786 21.7352C18.83 21.3837 18.83 20.8139 18.4786 20.4624C18.1271 20.1109 17.5573 20.1109 17.2058 20.4624ZM11.5669 20.3346C11.9184 20.6861 12.4882 20.6861 12.8397 20.3346L20.1682 13.0061C20.5197 12.6546 20.5197 12.0847 20.1682 11.7333C19.8167 11.3818 19.2469 11.3818 18.8954 11.7333L11.5669 19.0618C11.2154 19.4133 11.2154 19.9831 11.5669 20.3346Z" fill="#151515"/>
</svg>
