<svg width="32" height="32" viewBox="0 0 32 32" fill="none" xmlns="http://www.w3.org/2000/svg">
<path d="M27.2 14.4348H26.12L23.342 7.98098C23.2163 7.68898 23.0113 7.4409 22.7518 7.26679C22.4923 7.09268 22.1895 7 21.88 7H10.12C9.81054 7 9.50772 7.09268 9.24823 7.26679C8.98874 7.4409 8.78372 7.68898 8.658 7.98098L5.88 14.4348H4.8C4.58783 14.4348 4.38434 14.5218 4.23431 14.6767C4.08429 14.8317 4 15.0418 4 15.2609C4 15.48 4.08429 15.6901 4.23431 15.845C4.38434 15.9999 4.58783 16.087 4.8 16.087H5.6V24.3478C5.6 24.786 5.76857 25.2062 6.06863 25.5161C6.36869 25.8259 6.77565 26 7.2 26H9.6C10.0243 26 10.4313 25.8259 10.7314 25.5161C11.0314 25.2062 11.2 24.786 11.2 24.3478V22.6957H20.8V24.3478C20.8 24.786 20.9686 25.2062 21.2686 25.5161C21.5687 25.8259 21.9757 26 22.4 26H24.8C25.2243 26 25.6313 25.8259 25.9314 25.5161C26.2314 25.2062 26.4 24.786 26.4 24.3478V16.087H27.2C27.4122 16.087 27.6157 15.9999 27.7657 15.845C27.9157 15.6901 28 15.48 28 15.2609C28 15.0418 27.9157 14.8317 27.7657 14.6767C27.6157 14.5218 27.4122 14.4348 27.2 14.4348ZM10.12 8.65217H21.88L24.369 14.4348H7.631L10.12 8.65217ZM9.6 24.3478H7.2V22.6957H9.6V24.3478ZM22.4 24.3478V22.6957H24.8V24.3478H22.4ZM24.8 21.0435H7.2V16.087H24.8V21.0435ZM8.8 18.5652C8.8 18.3461 8.88429 18.136 9.03431 17.9811C9.18434 17.8262 9.38783 17.7391 9.6 17.7391H11.2C11.4122 17.7391 11.6157 17.8262 11.7657 17.9811C11.9157 18.136 12 18.3461 12 18.5652C12 18.7843 11.9157 18.9944 11.7657 19.1493C11.6157 19.3043 11.4122 19.3913 11.2 19.3913H9.6C9.38783 19.3913 9.18434 19.3043 9.03431 19.1493C8.88429 18.9944 8.8 18.7843 8.8 18.5652ZM20 18.5652C20 18.3461 20.0843 18.136 20.2343 17.9811C20.3843 17.8262 20.5878 17.7391 20.8 17.7391H22.4C22.6122 17.7391 22.8157 17.8262 22.9657 17.9811C23.1157 18.136 23.2 18.3461 23.2 18.5652C23.2 18.7843 23.1157 18.9944 22.9657 19.1493C22.8157 19.3043 22.6122 19.3913 22.4 19.3913H20.8C20.5878 19.3913 20.3843 19.3043 20.2343 19.1493C20.0843 18.9944 20 18.7843 20 18.5652Z" fill="#151515"/>
</svg>
