<svg width="24" height="24" viewBox="0 0 24 24" fill="none" xmlns="http://www.w3.org/2000/svg">
<path fill-rule="evenodd" clip-rule="evenodd" d="M12.0002 5.1752C8.23085 5.17519 5.1752 8.23085 5.1752 12.0002C5.17519 15.7695 8.23085 18.8252 12.0002 18.8252C15.7695 18.8252 18.8252 15.7695 18.8252 12.0002C18.8252 8.23085 15.7695 5.1752 12.0002 5.1752ZM3.8252 12.0002C3.8252 7.48527 7.48527 3.82519 12.0002 3.8252C16.5151 3.8252 20.1752 7.48527 20.1752 12.0002C20.1752 16.5151 16.5151 20.1752 12.0002 20.1752C7.48527 20.1752 3.82519 16.5151 3.8252 12.0002ZM12.0002 8.51269C12.373 8.51269 12.6752 8.8149 12.6752 9.1877V9.22065C12.6752 9.59345 12.373 9.89565 12.0002 9.89565C11.6274 9.89565 11.3252 9.59345 11.3252 9.22065V9.1877C11.3252 8.8149 11.6274 8.51269 12.0002 8.51269ZM12.0002 11.3252C12.373 11.3252 12.6752 11.6274 12.6752 12.0002V15.7502C12.6752 16.123 12.373 16.4252 12.0002 16.4252C11.6274 16.4252 11.3252 16.123 11.3252 15.7502L11.3252 12.0002C11.3252 11.6274 11.6274 11.3252 12.0002 11.3252Z" fill="#583FF5"/>
</svg>
