<svg width="20" height="20" viewBox="0 0 20 20" fill="none" xmlns="http://www.w3.org/2000/svg">
<path d="M10 3.125C8.64026 3.125 7.31104 3.52821 6.18046 4.28365C5.04987 5.03908 4.16868 6.11281 3.64833 7.36905C3.12798 8.62529 2.99183 10.0076 3.2571 11.3412C3.52238 12.6749 4.17716 13.8999 5.13864 14.8614C6.10013 15.8228 7.32514 16.4776 8.65876 16.7429C9.99238 17.0082 11.3747 16.872 12.6309 16.3517C13.8872 15.8313 14.9609 14.9501 15.7164 13.8195C16.4718 12.689 16.875 11.3597 16.875 10C16.875 8.17664 16.1507 6.42795 14.8614 5.13864C13.572 3.84933 11.8234 3.125 10 3.125ZM14.7266 10.8594H13.5191L12.5781 14.4344C12.5483 14.5496 12.481 14.6516 12.3869 14.7244C12.2928 14.7972 12.1772 14.8367 12.0582 14.8367C11.9392 14.8367 11.8236 14.7972 11.7295 14.7244C11.6354 14.6516 11.5681 14.5496 11.5383 14.4344L10.593 10.8594H9.43711L8.4961 14.4344C8.46624 14.5496 8.39898 14.6516 8.30488 14.7244C8.21078 14.7972 8.09516 14.8367 7.97617 14.8367C7.85719 14.8367 7.74157 14.7972 7.64747 14.7244C7.55337 14.6516 7.48611 14.5496 7.45625 14.4344L6.51094 10.8594H5.27344C5.15948 10.8594 5.05019 10.8141 4.96961 10.7335C4.88902 10.6529 4.84375 10.5436 4.84375 10.4297C4.84375 10.3157 4.88902 10.2064 4.96961 10.1259C5.05019 10.0453 5.15948 10 5.27344 10H6.28321L6.05547 9.14062H5.27344C5.15948 9.14062 5.05019 9.09535 4.96961 9.01477C4.88902 8.93419 4.84375 8.8249 4.84375 8.71094C4.84375 8.59698 4.88902 8.48768 4.96961 8.4071C5.05019 8.32652 5.15948 8.28125 5.27344 8.28125H5.83203L5.40235 6.7C5.36588 6.56211 5.38568 6.41538 5.4574 6.29209C5.52912 6.1688 5.64688 6.07904 5.78477 6.04258C5.92266 6.00611 6.06939 6.02591 6.19268 6.09763C6.31597 6.16935 6.40572 6.28711 6.44219 6.425L6.94063 8.28125H9.00313L9.49297 6.425C9.52283 6.30982 9.59009 6.20782 9.68419 6.135C9.77829 6.06219 9.89391 6.02268 10.0129 6.02268C10.1319 6.02268 10.2475 6.06219 10.3416 6.135C10.4357 6.20782 10.503 6.30982 10.5328 6.425L11.0227 8.28125H13.0852L13.575 6.425C13.6115 6.28711 13.7012 6.16935 13.8245 6.09763C13.9478 6.02591 14.0945 6.00611 14.2324 6.04258C14.3703 6.07904 14.4881 6.1688 14.5598 6.29209C14.6315 6.41538 14.6513 6.56211 14.6148 6.7L14.1852 8.28125H14.7266C14.8405 8.28125 14.9498 8.32652 15.0304 8.4071C15.111 8.48768 15.1562 8.59698 15.1562 8.71094C15.1562 8.8249 15.111 8.93419 15.0304 9.01477C14.9498 9.09535 14.8405 9.14062 14.7266 9.14062H13.9703L13.7426 10H14.7266C14.8405 10 14.9498 10.0453 15.0304 10.1259C15.111 10.2064 15.1562 10.3157 15.1562 10.4297C15.1562 10.5436 15.111 10.6529 15.0304 10.7335C14.9498 10.8141 14.8405 10.8594 14.7266 10.8594Z" fill="#7F7F7F"/>
</svg>
