<svg width="20" height="20" viewBox="0 0 20 20" fill="none" xmlns="http://www.w3.org/2000/svg">
<path d="M6.20902 6.36029C6.20902 5.50224 6.55445 4.67933 7.16932 4.0726C7.78419 3.46586 8.61814 3.125 9.4877 3.125C10.3573 3.125 11.1912 3.46586 11.8061 4.0726C12.421 4.67933 12.7664 5.50224 12.7664 6.36029C12.7664 7.21835 12.421 8.04126 11.8061 8.64799C11.1912 9.25473 10.3573 9.59559 9.4877 9.59559C8.61814 9.59559 7.78419 9.25473 7.16932 8.64799C6.55445 8.04126 6.20902 7.21835 6.20902 6.36029ZM3.75 12.0221C3.75 11.1218 4.49016 10.4044 5.39672 10.4044H11.6074C11.5839 10.4702 11.5658 10.5384 11.5533 10.609L11.1434 13.0355C11.1142 13.2081 11.1232 13.3849 11.1697 13.5537C11.2162 13.7226 11.2992 13.8795 11.413 14.0137C11.5267 14.1479 11.6686 14.2563 11.8288 14.3313C11.9889 14.4064 12.1637 14.4464 12.341 14.4485C12.1577 14.4507 11.9773 14.4933 11.8128 14.5731C11.6484 14.653 11.5041 14.7681 11.3906 14.9101C11.277 15.052 11.1971 15.2173 11.1566 15.3936C11.1161 15.57 11.1161 15.7531 11.1566 15.9295C10.6246 16.0217 10.0639 16.0662 9.4877 16.0662C7.96721 16.0662 6.55082 15.754 5.5 15.0932C4.43279 14.4218 3.75 13.389 3.75 12.0221ZM12.7664 10.4044C12.6694 10.4045 12.5755 10.4385 12.5015 10.5004C12.4275 10.5623 12.3782 10.6481 12.3623 10.7425L11.9525 13.169C11.9419 13.2314 11.9463 13.2953 11.9654 13.3557C11.9844 13.4161 12.0175 13.4713 12.0621 13.5167C12.1067 13.5622 12.1614 13.5967 12.2219 13.6175C12.2825 13.6383 12.3471 13.6448 12.4107 13.6365L12.4762 13.6276L12.6541 13.6049C13.032 13.5568 13.4101 13.5107 13.7885 13.4666C13.8835 13.4563 13.9786 13.4471 14.0738 13.4391L14.0984 13.4375C14.4516 13.4375 14.7904 13.576 15.0402 13.8225C15.29 14.0689 15.4303 14.4033 15.4303 14.7518C15.4303 15.1004 15.29 15.4347 15.0402 15.6812C14.7904 15.9277 14.4516 16.0662 14.0984 16.0662C13.8148 16.0587 13.5355 15.9955 13.277 15.8801C12.9984 15.7564 12.7992 15.5971 12.7041 15.4474C12.6465 15.3565 12.5546 15.2918 12.4487 15.2677C12.3428 15.2436 12.2315 15.262 12.1393 15.3188C12.0472 15.3757 11.9817 15.4663 11.9572 15.5708C11.9328 15.6753 11.9514 15.7851 12.009 15.8761C12.2221 16.2118 12.5811 16.4576 12.941 16.617C13.3066 16.7787 13.7221 16.875 14.0984 16.875C14.669 16.875 15.2163 16.6513 15.6198 16.2531C16.0233 15.855 16.25 15.3149 16.25 14.7518C16.25 14.1887 16.0233 13.6487 15.6198 13.2505C15.2163 12.8524 14.669 12.6287 14.0984 12.6287C14.0205 12.6287 13.8598 12.6449 13.6975 12.6626C13.4153 12.6942 13.1333 12.7282 12.8516 12.7646L13.1139 11.2132H15.6352C15.7439 11.2132 15.8482 11.1706 15.925 11.0948C16.0019 11.0189 16.0451 10.9161 16.0451 10.8088C16.0451 10.7016 16.0019 10.5987 15.925 10.5229C15.8482 10.447 15.7439 10.4044 15.6352 10.4044H12.7664Z" fill="#7F7F7F"/>
</svg>
