<svg width="24" height="24" viewBox="0 0 24 24" fill="none" xmlns="http://www.w3.org/2000/svg">
<path fill-rule="evenodd" clip-rule="evenodd" d="M15.2445 14.0055C15.5081 14.2691 15.9355 14.2691 16.1991 14.0055L18.0313 12.1733C18.8401 11.3645 19.308 10.261 19.2995 9.09731C19.291 7.94508 18.8374 6.83539 17.9893 6.01146C17.1678 5.19196 16.0621 4.73951 14.9111 4.73105C13.758 4.72258 12.6513 5.16063 11.8349 5.97696L10.0028 7.8091C9.73917 8.0727 9.73917 8.50009 10.0028 8.76369C10.2664 9.02729 10.6938 9.02729 10.9574 8.76369L12.7895 6.93157C13.3417 6.37936 14.0973 6.07511 14.9012 6.08101C15.7054 6.08692 16.4715 6.40291 17.0384 6.9698L17.0459 6.97728C17.6288 7.54215 17.9436 8.30422 17.9495 9.10723C17.9554 9.90047 17.6363 10.6591 17.0767 11.2187L15.2445 13.0509C14.9809 13.3145 14.9809 13.7419 15.2445 14.0055ZM12.9043 15.3463L11.0722 17.1784C11.0722 17.1784 11.0722 17.1784 11.0722 17.1784C10.5185 17.7321 9.78437 18.035 8.96055 18.029C8.15766 18.0231 7.39536 17.7083 6.83056 17.1254C6.82564 17.1204 6.82065 17.1154 6.81557 17.1104C6.2327 16.5456 5.91791 15.7834 5.91201 14.9804C5.90618 14.1872 6.2252 13.4286 6.78487 12.8689L8.61701 11.0368C8.88061 10.7732 8.88061 10.3458 8.61701 10.0822C8.3534 9.81861 7.92602 9.81861 7.66241 10.0822L5.83028 11.9143C5.02145 12.7232 4.5535 13.8266 4.56205 14.9904C4.5705 16.1409 5.02278 17.249 5.86846 18.0725C6.692 18.9182 7.80031 19.3705 8.95063 19.3789C10.1281 19.3876 11.212 18.9478 12.0268 18.133L13.8589 16.3009C14.1225 16.0373 14.1225 15.6099 13.8589 15.3463C13.5953 15.0827 13.1679 15.0827 12.9043 15.3463ZM8.67516 15.2504C8.93877 15.5141 9.36615 15.5141 9.62976 15.2504L15.1261 9.75406C15.3898 9.49045 15.3898 9.06307 15.1261 8.79946C14.8625 8.53586 14.4352 8.53586 14.1716 8.79946L8.67516 14.2959C8.41156 14.5595 8.41156 14.9868 8.67516 15.2504Z" fill="#583FF5"/>
</svg>
