<svg width="32" height="32" viewBox="0 0 32 32" fill="none" xmlns="http://www.w3.org/2000/svg">
<path fill-rule="evenodd" clip-rule="evenodd" d="M15.399 6.19471C15.7049 6.04261 16.0706 6.07682 16.343 6.28302L27.5428 14.7617C27.762 14.9276 27.8933 15.1846 27.8994 15.4595C27.9054 15.7343 27.7855 15.9969 27.5739 16.1723L16.374 25.4536C16.1054 25.6761 15.7325 25.7235 15.4169 25.5751C15.1012 25.4267 14.8997 25.1094 14.8997 24.7606L14.8997 20.6321C12.7868 20.6074 10.8793 21.7034 9.38532 22.9839C8.5607 23.6907 7.89725 24.4247 7.43959 24.9834C7.21146 25.2619 7.03629 25.4946 6.91959 25.6555C6.86128 25.7359 6.81769 25.7982 6.78951 25.8392C6.77543 25.8596 6.7652 25.8748 6.75893 25.8841L6.75249 25.8937L6.75178 25.8948C6.53345 26.2271 6.12292 26.3768 5.74193 26.2629C5.36077 26.149 5.09961 25.7984 5.09961 25.4006H5.99961C5.09961 25.4006 5.09961 25.4011 5.09961 25.4006L5.09961 25.3985L5.09962 25.3955L5.09967 25.3862L5.1 25.3557C5.10036 25.3301 5.10105 25.2941 5.10238 25.2482C5.10504 25.1564 5.11025 25.0251 5.12045 24.8594C5.14085 24.528 5.18128 24.0575 5.26153 23.4876C5.42162 22.3506 5.74226 20.8029 6.38761 19.1698C7.62456 16.0396 10.084 12.5426 14.8997 11.112L14.8997 7.00059C14.8997 6.65897 15.0931 6.3468 15.399 6.19471ZM7.2631 22.4992C7.55251 22.2096 7.87018 21.9119 8.2139 21.6173C10.0399 20.0521 12.7466 18.4553 15.927 18.9096C16.3704 18.973 16.6997 19.3527 16.6997 19.8006L16.6997 22.8459L25.5506 15.5112L16.6997 8.81073L16.6997 11.8006C16.6997 12.2152 16.4165 12.5761 16.0138 12.6748C11.4844 13.784 9.2173 16.9069 8.06164 19.8314C7.68923 20.7738 7.43561 21.6895 7.2631 22.4992Z" fill="white"/>
</svg>
