<svg width="24" height="24" viewBox="0 0 24 24" fill="none" xmlns="http://www.w3.org/2000/svg">
<path fill-rule="evenodd" clip-rule="evenodd" d="M7.27961 6.6752C6.11737 6.6752 5.1752 7.61737 5.1752 8.77961L5.1752 15.6753C5.1752 16.8375 6.11738 17.7797 7.27962 17.7797H11.8045C12.1196 16.705 13.1127 15.9203 14.2893 15.9203C15.4658 15.9203 16.4589 16.705 16.774 17.7797H17.4708C18.633 17.7797 19.5752 16.8375 19.5752 15.6753V8.77961C19.5752 7.61737 18.633 6.6752 17.4708 6.6752H16.774C16.4589 7.74993 15.4658 8.53457 14.2893 8.53457C13.1127 8.53457 12.1196 7.74993 11.8045 6.6752H7.27961ZM3.8252 8.77961C3.8252 6.87179 5.37179 5.3252 7.27961 5.3252H12.376C12.7414 5.3252 13.0404 5.61599 13.0507 5.98127C13.0694 6.64884 13.6169 7.18457 14.2893 7.18457C14.9616 7.18457 15.5091 6.64884 15.5278 5.98127C15.5381 5.61599 15.8371 5.3252 16.2026 5.3252H17.4708C19.3786 5.3252 20.9252 6.87179 20.9252 8.77961V15.6753C20.9252 17.5831 19.3786 19.1297 17.4708 19.1297H16.2026C15.8371 19.1297 15.5381 18.8389 15.5278 18.4736C15.5091 17.8061 14.9616 17.2703 14.2893 17.2703C13.6169 17.2703 13.0694 17.8061 13.0507 18.4736C13.0404 18.8389 12.7414 19.1297 12.376 19.1297H7.27962C5.3718 19.1297 3.8252 17.5831 3.8252 15.6753L3.8252 8.77961ZM14.1248 9.33096C14.4976 9.33096 14.7998 9.63317 14.7998 10.006V10.1473C14.7998 10.5201 14.4976 10.8223 14.1248 10.8223C13.752 10.8223 13.4498 10.5201 13.4498 10.1473V10.006C13.4498 9.63317 13.752 9.33096 14.1248 9.33096ZM14.1248 11.5113C14.4976 11.5113 14.7998 11.8135 14.7998 12.1863V12.3276C14.7998 12.7004 14.4976 13.0026 14.1248 13.0026C13.752 13.0026 13.4498 12.7004 13.4498 12.3276V12.1863C13.4498 11.8135 13.752 11.5113 14.1248 11.5113ZM14.1252 13.7009C14.498 13.7009 14.8002 14.0031 14.8002 14.3759V14.5172C14.8002 14.89 14.498 15.1922 14.1252 15.1922C13.7524 15.1922 13.4502 14.89 13.4502 14.5172V14.3759C13.4502 14.0031 13.7524 13.7009 14.1252 13.7009Z" fill="#583FF5"/>
</svg>
