<svg width="24" height="24" viewBox="0 0 24 24" fill="none" xmlns="http://www.w3.org/2000/svg">
<path fill-rule="evenodd" clip-rule="evenodd" d="M7.3396 5.83206L6.08459 7.0845C5.88154 7.28714 5.77856 7.50818 5.75387 7.79416C5.70848 8.34921 5.80685 8.97071 6.1314 9.83788L6.13205 9.83962C6.66191 11.2684 7.46564 12.6124 8.69281 14.0887C10.1665 15.8439 11.9367 17.2259 13.9512 18.1993C14.7037 18.5584 15.6356 18.9419 16.6104 19.0041L16.6121 19.0042C16.6434 19.0063 16.6815 19.0066 16.7411 19.0066C17.15 19.0066 17.4224 18.8865 17.6714 18.6246C17.8114 18.4627 18.1137 18.1553 18.3627 17.9055C18.4955 17.7723 18.6208 17.6478 18.7129 17.5567L18.7743 17.496C18.7948 17.4398 18.8169 17.3689 18.831 17.2956C18.8466 17.2148 18.8477 17.1564 18.8428 17.1224C18.8425 17.121 18.8422 17.1186 18.8422 17.1186L16.8094 15.0899C16.8026 15.0832 16.796 15.0763 16.7895 15.0692C16.7641 15.0414 16.7372 15.0195 16.7158 15.0072L16.7139 15.0061C16.7103 15.0079 16.706 15.0101 16.701 15.0129C16.67 15.0304 16.6328 15.0598 16.5952 15.0973L15.8692 15.8218C15.8678 15.8232 15.8662 15.8248 15.8645 15.8265C15.7813 15.9098 15.433 16.2584 14.8671 16.2584C14.6363 16.2584 14.4233 16.2006 14.2229 16.1006C14.2013 16.0899 14.1838 16.0798 14.1724 16.0731C14.1652 16.0688 14.1584 16.0646 14.154 16.0618C14.1454 16.0571 14.137 16.0521 14.1286 16.047C14.0503 15.9984 13.9518 15.9487 13.8118 15.8789L13.8025 15.8742C13.6595 15.8029 13.4801 15.7134 13.3014 15.6003L13.302 15.6007C12.0532 14.8126 10.9305 13.7905 9.8761 12.4972C9.86828 12.4884 9.8607 12.4793 9.85338 12.4701C9.2669 11.7269 8.86183 11.0787 8.57069 10.3748C8.56516 10.3614 8.56009 10.3478 8.55551 10.3341L8.5444 10.3009L8.54134 10.2915C8.49885 10.1572 8.43658 9.92695 8.46836 9.65296C8.50093 9.3722 8.62548 9.09706 8.86157 8.85127C8.89271 8.81546 8.91923 8.79278 8.93016 8.78344L8.9323 8.78161C9.01445 8.70813 9.06551 8.66405 9.10089 8.63465C9.11603 8.62208 9.12813 8.61234 9.13833 8.60429C9.13997 8.60263 9.14181 8.60076 9.14387 8.59867C9.15563 8.5867 9.1699 8.57206 9.18939 8.55208C9.21333 8.52754 9.24513 8.49494 9.28979 8.44931C9.29403 8.44497 9.29835 8.44069 9.30272 8.43648C9.36927 8.37235 9.43028 8.31073 9.49713 8.24322C9.53355 8.20644 9.57171 8.16791 9.61343 8.12627C9.68075 8.05909 9.70894 8.01541 9.7202 7.99346C9.70894 7.97151 9.68075 7.92783 9.61343 7.86065L8.59561 6.8449C8.53844 6.78607 8.48107 6.72782 8.42218 6.66812L8.42165 6.66758C8.36313 6.60826 8.30305 6.54736 8.24361 6.48613C8.01888 6.2545 7.81298 6.04568 7.59907 5.8462C7.59394 5.84142 7.58888 5.83654 7.58391 5.83158L7.5728 5.82049C7.54101 5.78876 7.5107 5.7655 7.48626 5.75214C7.47907 5.7482 7.47382 5.74589 7.47037 5.74456C7.45567 5.74883 7.41147 5.76606 7.3396 5.83206ZM19.8691 18.1018L19.8598 18.1216C19.8287 18.1858 19.7868 18.2441 19.7359 18.2941L19.6959 18.3334L19.5876 18.4404C19.4968 18.5303 19.3736 18.6527 19.2434 18.7833C18.9734 19.0542 18.7023 19.3317 18.6071 19.4436C18.6007 19.4511 18.5941 19.4585 18.5873 19.4658C18.0906 19.9958 17.4831 20.25 16.7411 20.25H16.7347C16.6831 20.25 16.6061 20.25 16.5295 20.2449C15.3056 20.1664 14.1944 19.6932 13.4142 19.3208L13.4116 19.3195C11.2347 18.2679 9.32438 16.775 7.73948 14.887L7.73758 14.8847C6.43971 13.3236 5.555 11.8593 4.96654 10.2728L4.96686 10.2737L4.96622 10.272L4.96654 10.2728C4.60269 9.30041 4.44924 8.48838 4.51471 7.69124L4.51489 7.68908C4.56443 7.1107 4.79477 6.61502 5.20626 6.20437L6.46915 4.94406C6.47378 4.93944 6.47849 4.93489 6.48326 4.93042C6.73599 4.69364 7.07311 4.5 7.47125 4.5C7.95358 4.5 8.29379 4.78334 8.45113 4.94036L8.45489 4.94411C8.68987 5.16364 8.91123 5.38859 9.1358 5.62005M19.8691 18.1018C19.9026 18.0248 19.8598 18.1216 19.8598 18.1216L19.8601 18.1209L19.8605 18.1201L19.8613 18.1184L19.8634 18.114L19.8691 18.1018C19.8735 18.0922 19.8793 18.0795 19.886 18.064C19.8993 18.0333 19.9168 17.9911 19.9359 17.94C19.9733 17.8396 20.0201 17.696 20.0519 17.5314C20.1061 17.2509 20.161 16.6753 19.735 16.2529L19.7336 16.2515L17.6966 14.2187C17.5315 14.0416 17.1924 13.7583 16.7152 13.7583C16.2243 13.7583 15.8707 14.0636 15.7168 14.2172L14.9909 14.9416C14.9662 14.9663 14.9477 14.9835 14.9236 14.9978C14.9025 15.0102 14.8858 15.015 14.8671 15.015C14.855 15.015 14.8345 15.0139 14.7936 14.9954C14.7906 14.9936 14.7874 14.9917 14.7841 14.9897C14.7794 14.987 14.7738 14.9837 14.7672 14.98C14.6394 14.9022 14.4985 14.8319 14.3794 14.7724L14.367 14.7663C14.2151 14.6905 14.0874 14.6262 13.9663 14.5496L13.9657 14.5492C12.842 13.8401 11.8135 12.9086 10.8274 11.6963C10.8236 11.6916 10.8197 11.687 10.8158 11.6824C10.2905 11.0148 9.96016 10.4749 9.72781 9.91905L9.72551 9.91213C9.70262 9.8388 9.70198 9.80935 9.7035 9.79623C9.70399 9.79207 9.70499 9.78641 9.70993 9.77645C9.71516 9.76588 9.72942 9.74131 9.76583 9.70498C9.76774 9.70307 9.76963 9.70116 9.77151 9.69923C9.84166 9.63662 9.87745 9.60604 9.89537 9.59116C9.90396 9.58403 9.90824 9.58067 9.91043 9.57896L9.91812 9.57299C9.92196 9.57001 9.92922 9.56435 9.93772 9.55739C9.97555 9.52641 10.0063 9.49507 10.0284 9.47255L10.0309 9.47C10.0427 9.45801 10.0591 9.44116 10.0807 9.41902C10.1047 9.3945 10.1349 9.36349 10.1722 9.32538C10.2467 9.25344 10.3234 9.17595 10.3946 9.10411C10.4286 9.06985 10.4612 9.03687 10.4918 9.0064C10.7471 8.75159 10.9687 8.41391 10.9687 7.99346C10.9687 7.57301 10.7471 7.23533 10.4918 6.98052L9.48406 5.97488C9.42477 5.91389 9.36575 5.85407 9.30898 5.79652L9.30683 5.79433C9.24779 5.73449 9.19114 5.67705 9.1358 5.62005" fill="#583FF5"/>
</svg>
