<svg width="32" height="32" viewBox="0 0 32 32" fill="none" xmlns="http://www.w3.org/2000/svg">
<path d="M16 6C14.0222 6 12.0888 6.58649 10.4443 7.6853C8.79981 8.78412 7.51809 10.3459 6.76121 12.1732C6.00433 14.0004 5.8063 16.0111 6.19215 17.9509C6.578 19.8907 7.53041 21.6725 8.92894 23.0711C10.3275 24.4696 12.1093 25.422 14.0491 25.8078C15.9889 26.1937 17.9996 25.9957 19.8268 25.2388C21.6541 24.4819 23.2159 23.2002 24.3147 21.5557C25.4135 19.9112 26 17.9778 26 16C25.9972 13.3487 24.9427 10.8068 23.068 8.93202C21.1932 7.05727 18.6513 6.0028 16 6ZM16 24.4615C14.3265 24.4615 12.6905 23.9653 11.299 23.0355C9.90753 22.1057 8.823 20.7842 8.18256 19.2381C7.54213 17.6919 7.37456 15.9906 7.70105 14.3492C8.02754 12.7079 8.83343 11.2002 10.0168 10.0168C11.2002 8.83342 12.7079 8.02754 14.3492 7.70105C15.9906 7.37456 17.6919 7.54212 19.2381 8.18256C20.7842 8.82299 22.1057 9.90753 23.0355 11.299C23.9653 12.6905 24.4615 14.3265 24.4615 16C24.459 18.2434 23.5667 20.3941 21.9804 21.9804C20.3941 23.5667 18.2434 24.459 16 24.4615ZM15.2308 16.7692V11.3846C15.2308 11.1806 15.3118 10.9849 15.4561 10.8407C15.6003 10.6964 15.796 10.6154 16 10.6154C16.204 10.6154 16.3997 10.6964 16.5439 10.8407C16.6882 10.9849 16.7692 11.1806 16.7692 11.3846V16.7692C16.7692 16.9732 16.6882 17.1689 16.5439 17.3132C16.3997 17.4574 16.204 17.5385 16 17.5385C15.796 17.5385 15.6003 17.4574 15.4561 17.3132C15.3118 17.1689 15.2308 16.9732 15.2308 16.7692ZM17.1538 20.2308C17.1538 20.459 17.0862 20.6821 16.9594 20.8718C16.8326 21.0616 16.6524 21.2094 16.4416 21.2968C16.2307 21.3841 15.9987 21.407 15.7749 21.3624C15.5511 21.3179 15.3455 21.208 15.1841 21.0467C15.0227 20.8853 14.9128 20.6797 14.8683 20.4559C14.8238 20.232 14.8467 20 14.934 19.7892C15.0213 19.5784 15.1692 19.3982 15.359 19.2714C15.5487 19.1446 15.7718 19.0769 16 19.0769C16.306 19.0769 16.5995 19.1985 16.8159 19.4149C17.0323 19.6313 17.1538 19.9247 17.1538 20.2308Z" fill="#151515"/>
</svg>
