<svg width="20" height="20" viewBox="0 0 20 20" fill="none" xmlns="http://www.w3.org/2000/svg">
<path fill-rule="evenodd" clip-rule="evenodd" d="M10.1359 4.3125C7.61007 4.3125 5.5625 6.36007 5.5625 8.88587C5.5625 9.61085 5.83788 10.4433 6.29961 11.3154C6.75751 12.1804 7.37487 13.0401 8.00329 13.8082C8.63021 14.5744 9.2587 15.238 9.73114 15.7104C9.88472 15.864 10.0215 15.9971 10.1359 16.1065C10.2503 15.9971 10.387 15.864 10.5406 15.7104C11.013 15.238 11.6415 14.5744 12.2685 13.8082C12.8969 13.0401 13.5142 12.1804 13.9721 11.3154C14.4339 10.4433 14.7092 9.61085 14.7092 8.88587C14.7092 6.36007 12.6617 4.3125 10.1359 4.3125ZM10.1359 16.875C9.76217 17.2954 9.76207 17.2953 9.76195 17.2952L9.76061 17.294L9.75721 17.291L9.74493 17.28C9.73435 17.2705 9.71906 17.2566 9.69935 17.2387C9.65995 17.2028 9.60289 17.1503 9.53069 17.0827C9.38633 16.9475 9.18125 16.7515 8.93564 16.5059C8.4451 16.0154 7.78962 15.3236 7.13258 14.5206C6.47704 13.7194 5.81042 12.7958 5.30535 11.8418C4.80411 10.895 4.4375 9.87285 4.4375 8.88587C4.4375 5.73875 6.98875 3.1875 10.1359 3.1875C13.283 3.1875 15.8342 5.73875 15.8342 8.88587C15.8342 9.87285 15.4676 10.895 14.9664 11.8418C14.4613 12.7958 13.7947 13.7194 13.1392 14.5206C12.4821 15.3236 11.8266 16.0154 11.3361 16.5059C11.0905 16.7515 10.8854 16.9475 10.7411 17.0827C10.6689 17.1503 10.6118 17.2028 10.5724 17.2387C10.5527 17.2566 10.5374 17.2705 10.5268 17.28L10.5145 17.291L10.5111 17.294L10.5101 17.2949C10.51 17.295 10.5096 17.2954 10.1359 16.875ZM10.1359 16.875L10.5096 17.2954C10.2965 17.4849 9.97508 17.4847 9.76195 17.2952L10.1359 16.875ZM10.1361 7.59385C9.54065 7.59385 9.05795 8.07655 9.05795 8.67198C9.05795 9.26741 9.54065 9.7501 10.1361 9.7501C10.7315 9.7501 11.2142 9.26741 11.2142 8.67198C11.2142 8.07655 10.7315 7.59385 10.1361 7.59385ZM7.93296 8.67198C7.93296 7.45523 8.91933 6.46885 10.1361 6.46885C11.3528 6.46885 12.3392 7.45523 12.3392 8.67198C12.3392 9.88873 11.3528 10.8751 10.1361 10.8751C8.91933 10.8751 7.93296 9.88873 7.93296 8.67198Z" fill="#7F7F7F"/>
</svg>
