<svg width="32" height="32" viewBox="0 0 32 32" fill="none" xmlns="http://www.w3.org/2000/svg">
<path fill-rule="evenodd" clip-rule="evenodd" d="M5.36321 5.3637C5.71469 5.01223 6.28453 5.01223 6.63601 5.3637L15.9996 14.7273L25.3632 5.36371C25.7147 5.01223 26.2845 5.01223 26.636 5.36371C26.9875 5.71518 26.9875 6.28503 26.636 6.6365L17.2724 16.0001L26.636 25.3637C26.9875 25.7152 26.9875 26.285 26.636 26.6365C26.2845 26.988 25.7147 26.988 25.3632 26.6365L15.9996 17.2729L6.63601 26.6365C6.28453 26.988 5.71469 26.988 5.36321 26.6365C5.01174 26.285 5.01174 25.7152 5.36321 25.3637L14.7268 16.0001L5.36321 6.63649C5.01174 6.28502 5.01174 5.71517 5.36321 5.3637Z" fill="#262627"/>
</svg>
