<svg width="24" height="24" viewBox="0 0 24 24" fill="none" xmlns="http://www.w3.org/2000/svg">
<path fill-rule="evenodd" clip-rule="evenodd" d="M11.5 5.25C8.04822 5.25 5.25 8.04822 5.25 11.5C5.25 14.9518 8.04822 17.75 11.5 17.75C13.202 17.75 14.745 17.0697 15.8721 15.9662C15.8735 15.9649 15.8749 15.9635 15.8762 15.9622C17.0326 14.8279 17.75 13.2477 17.75 11.5C17.75 8.04822 14.9518 5.25 11.5 5.25ZM17.4467 16.4701C18.5724 15.1247 19.25 13.3915 19.25 11.5C19.25 7.21979 15.7802 3.75 11.5 3.75C7.21979 3.75 3.75 7.21979 3.75 11.5C3.75 15.7802 7.21979 19.25 11.5 19.25C13.3484 19.25 15.0457 18.6029 16.3776 17.5229L18.9785 20.039C19.2762 20.327 19.751 20.3192 20.039 20.0215C20.327 19.7238 20.3192 19.249 20.0215 18.961L17.4467 16.4701Z" fill="#583FF5"/>
</svg>
