<svg width="20" height="20" viewBox="0 0 20 20" fill="none" xmlns="http://www.w3.org/2000/svg">
<path fill-rule="evenodd" clip-rule="evenodd" d="M7.32468 4.9375C7.09965 4.9375 6.88011 5.09672 6.81275 5.35957L6.11544 8.08079H14.737L13.8542 5.32487C13.7762 5.08127 13.5664 4.9375 13.3523 4.9375H7.32468ZM15.9582 8.20539L14.9256 4.98169C14.7059 4.29573 14.0797 3.8125 13.3523 3.8125H7.32468C6.55866 3.8125 5.91097 4.34664 5.72297 5.08031L4.94213 8.12746C3.92742 8.3423 3.1875 9.27185 3.1875 10.3506V14.9035C3.1875 15.8214 3.90811 16.6042 4.84375 16.6042H5.9375C6.87314 16.6042 7.59375 15.8214 7.59375 14.9035V14.5615H13.0312V14.9035C13.0312 15.8214 13.7519 16.6042 14.6875 16.6042H15.7812C16.7169 16.6042 17.4375 15.8214 17.4375 14.9035V10.3506C17.4375 9.37208 16.8287 8.51631 15.9582 8.20539ZM16.3125 14.2725V14.9035C16.3125 15.2427 16.0537 15.4792 15.7812 15.4792H14.6875C14.415 15.4792 14.1562 15.2427 14.1562 14.9035V14.5615H15.2344C15.6289 14.5615 15.9958 14.4561 16.3125 14.2725ZM15.2344 13.4365C15.8089 13.4365 16.3125 12.9453 16.3125 12.2917V10.3506C16.3125 9.69701 15.8089 9.20579 15.2344 9.20579H5.39063C4.81611 9.20579 4.3125 9.69701 4.3125 10.3506V12.2917C4.3125 12.9453 4.81611 13.4365 5.39063 13.4365H15.2344ZM6.46875 14.5615H5.39063C4.99611 14.5615 4.62925 14.4561 4.3125 14.2725V14.9035C4.3125 15.2427 4.57126 15.4792 4.84375 15.4792H5.9375C6.20999 15.4792 6.46875 15.2427 6.46875 14.9035V14.5615ZM5.10156 11.2043C5.10156 10.8936 5.3534 10.6418 5.66406 10.6418H7.57813C7.88879 10.6418 8.14063 10.8936 8.14063 11.2043C8.14063 11.5149 7.88879 11.7668 7.57813 11.7668H5.66406C5.3534 11.7668 5.10156 11.5149 5.10156 11.2043ZM12.4844 11.2043C12.4844 10.8936 12.7362 10.6418 13.0469 10.6418H14.9609C15.2716 10.6418 15.5234 10.8936 15.5234 11.2043C15.5234 11.5149 15.2716 11.7668 14.9609 11.7668H13.0469C12.7362 11.7668 12.4844 11.5149 12.4844 11.2043Z" fill="#7F7F7F"/>
</svg>
