<svg width="18" height="18" viewBox="0 0 18 18" fill="none" xmlns="http://www.w3.org/2000/svg">
<path fill-rule="evenodd" clip-rule="evenodd" d="M3.91402 4.54577C4.58677 3.83564 5.50526 3.43121 6.46914 3.43121C7.01806 3.43121 7.51576 3.51414 8.00107 3.73726C8.35035 3.89783 8.67608 4.12317 9.00039 4.4162C9.3247 4.12317 9.65043 3.89783 9.99971 3.73726C10.485 3.51414 10.9827 3.43121 11.5316 3.43121C12.4955 3.43121 13.414 3.83564 14.0868 4.54577C14.7586 5.25498 15.1316 6.21129 15.1316 7.20309C15.1316 8.78076 14.1442 9.94917 13.3037 10.8187L9.3679 14.9731C9.2723 15.0741 9.1394 15.1312 9.00039 15.1312C8.86138 15.1312 8.72848 15.0741 8.63288 14.9731L4.6983 10.82C3.84861 9.95258 2.86914 8.78543 2.86914 7.20309C2.86914 6.21129 3.24214 5.25498 3.91402 4.54577ZM6.46914 4.44371C5.792 4.44371 5.13667 4.7274 4.64904 5.24211C4.16054 5.75776 3.88164 6.46269 3.88164 7.20309C3.88164 8.35011 4.58734 9.2602 5.42445 10.1144L5.4304 10.1205L9.00039 13.8889L12.5739 10.1168C13.4093 9.25281 14.1191 8.34366 14.1191 7.20309C14.1191 6.46269 13.8402 5.75776 13.3517 5.24211C12.8641 4.7274 12.2088 4.44371 11.5316 4.44371C11.0906 4.44371 10.7445 4.50922 10.4226 4.6572C10.0964 4.80716 9.76218 5.05695 9.3679 5.47313C9.2723 5.57405 9.1394 5.63121 9.00039 5.63121C8.86138 5.63121 8.72848 5.57405 8.63288 5.47313C8.2386 5.05695 7.90433 4.80716 7.57815 4.6572C7.25627 4.50922 6.91023 4.44371 6.46914 4.44371Z" fill="#583FF5"/>
</svg>
