<svg width="32" height="32" viewBox="0 0 32 32" fill="none" xmlns="http://www.w3.org/2000/svg">
<path d="M11.3573 7.5527C11.2728 7.46824 11.2058 7.36797 11.1601 7.25762C11.1144 7.14727 11.0909 7.02899 11.0909 6.90955C11.0909 6.79011 11.1144 6.67183 11.1601 6.56148C11.2058 6.45113 11.2728 6.35086 11.3573 6.2664C11.4418 6.18194 11.542 6.11495 11.6524 6.06924C11.7627 6.02353 11.881 6 12.0004 6C12.1198 6 12.2381 6.02353 12.3485 6.06924C12.4588 6.11495 12.5591 6.18194 12.6435 6.2664L21.7334 15.3569C21.8179 15.4413 21.885 15.5415 21.9307 15.6519C21.9765 15.7622 22 15.8805 22 16C22 16.1195 21.9765 16.2378 21.9307 16.3481C21.885 16.4585 21.8179 16.5587 21.7334 16.6432L12.6435 25.7336C12.473 25.9042 12.2416 26 12.0004 26C11.7592 26 11.5279 25.9042 11.3573 25.7336C11.1867 25.563 11.0909 25.3317 11.0909 25.0904C11.0909 24.8492 11.1867 24.6179 11.3573 24.4473L19.8052 16L11.3573 7.5527Z" fill="#151515"/>
</svg>
