<svg width="32" height="32" viewBox="0 0 32 32" fill="none" xmlns="http://www.w3.org/2000/svg">
<path fill-rule="evenodd" clip-rule="evenodd" d="M6.95716 8.08105C8.15318 6.81859 9.78604 6.09961 11.4996 6.09961C12.4755 6.09961 13.3603 6.24704 14.223 6.64369C14.844 6.92916 15.4231 7.32975 15.9996 7.8507C16.5762 7.32975 17.1552 6.92916 17.7762 6.64369C18.6389 6.24704 19.5238 6.09961 20.4996 6.09961C22.2132 6.09961 23.846 6.81859 25.0421 8.08105C26.2365 9.34185 26.8996 11.042 26.8996 12.8052C26.8996 15.6099 25.1441 17.6871 23.6499 19.233L16.653 26.6186C16.483 26.798 16.2467 26.8996 15.9996 26.8996C15.7525 26.8996 15.5162 26.798 15.3463 26.6186L8.35144 19.2352C6.84089 17.6931 5.09961 15.6182 5.09961 12.8052C5.09961 11.042 5.76272 9.34185 6.95716 8.08105ZM11.4996 7.89961C10.2958 7.89961 9.13077 8.40394 8.26388 9.31899C7.39543 10.2357 6.89961 11.4889 6.89961 12.8052C6.89961 14.8443 8.15418 16.4623 9.64239 17.9808L9.65297 17.9917L15.9996 24.691L22.3525 17.9851C23.8376 16.4491 25.0996 14.8329 25.0996 12.8052C25.0996 11.4889 24.6038 10.2357 23.7353 9.31899C22.8685 8.40394 21.7034 7.89961 20.4996 7.89961C19.7155 7.89961 19.1003 8.01607 18.528 8.27914C17.9482 8.54574 17.3539 8.98981 16.653 9.72969C16.483 9.9091 16.2467 10.0107 15.9996 10.0107C15.7525 10.0107 15.5162 9.9091 15.3463 9.72969C14.6453 8.98981 14.0511 8.54574 13.4712 8.27914C12.8989 8.01607 12.2838 7.89961 11.4996 7.89961Z" fill="white"/>
</svg>
