<svg width="32" height="32" viewBox="0 0 32 32" fill="none" xmlns="http://www.w3.org/2000/svg">
<path fill-rule="evenodd" clip-rule="evenodd" d="M16.3336 6.89961C12.5851 6.89961 9.40876 10.2572 9.40876 14.5765V14.5866H9.4087L9.38028 17.1313C9.37906 18.9951 8.71748 20.5494 8.00462 21.645H24.6622C23.9787 20.5476 23.3453 18.991 23.3453 17.1261V17.1155L23.3454 17.1155L23.3738 14.6978C23.3713 10.3111 20.1444 6.89961 16.3336 6.89961ZM7.60876 14.5714C7.61131 9.41922 11.4407 5.09961 16.3336 5.09961C21.2919 5.09961 25.1738 9.47866 25.1738 14.7029V14.7135H25.1737L25.1453 17.1311C25.1465 18.681 25.7107 19.9776 26.3006 20.8653L25.6287 21.3119L26.3006 20.8653C26.6453 21.384 26.6127 22.0015 26.4418 22.4414C26.2762 22.8679 25.8373 23.445 25.0759 23.445H7.59254C6.81896 23.445 6.38112 22.8507 6.21974 22.4222C6.0527 21.9787 6.02311 21.3507 6.38375 20.8303C6.9997 19.9415 7.58028 18.6561 7.58028 17.1261V17.116H7.58034L7.60876 14.5714ZM12.5194 25.3773C12.8296 24.9889 13.3959 24.9256 13.7843 25.2358C14.4482 25.7662 15.3397 26.0996 16.3336 26.0996C17.3275 26.0996 18.2191 25.7662 18.883 25.2358C19.2714 24.9256 19.8377 24.9889 20.1479 25.3773C20.4582 25.7656 20.3948 26.3319 20.0065 26.6422C19.0192 27.4309 17.7302 27.8996 16.3336 27.8996C14.9371 27.8996 13.6481 27.4309 12.6608 26.6422C12.2724 26.3319 12.2091 25.7656 12.5194 25.3773Z" fill="#583FF5"/>
</svg>
