<svg width="32" height="32" viewBox="0 0 32 32" fill="none" xmlns="http://www.w3.org/2000/svg">
<path d="M24.7927 20.2444C24.2724 19.3481 23.4989 16.8122 23.4989 13.5C23.4989 11.5109 22.7087 9.60322 21.3022 8.1967C19.8957 6.79018 17.988 6 15.9989 6C14.0098 6 12.1021 6.79018 10.6956 8.1967C9.28909 9.60322 8.49891 11.5109 8.49891 13.5C8.49891 16.8131 7.72454 19.3481 7.20423 20.2444C7.07135 20.4722 7.00091 20.7311 7.00001 20.9949C6.9991 21.2586 7.06776 21.518 7.19907 21.7467C7.33037 21.9755 7.51968 22.1656 7.74789 22.2978C7.9761 22.4301 8.23515 22.4998 8.49891 22.5H12.3249C12.4979 23.3467 12.9581 24.1077 13.6275 24.6542C14.297 25.2007 15.1347 25.4992 15.9989 25.4992C16.8631 25.4992 17.7008 25.2007 18.3703 24.6542C19.0398 24.1077 19.4999 23.3467 19.673 22.5H23.4989C23.7626 22.4996 24.0215 22.4298 24.2496 22.2975C24.4777 22.1651 24.6669 21.975 24.7981 21.7463C24.9292 21.5176 24.9978 21.2583 24.9969 20.9946C24.9959 20.7309 24.9255 20.4722 24.7927 20.2444ZM15.9989 24C15.5337 23.9999 15.0801 23.8555 14.7003 23.5869C14.3205 23.3183 14.0333 22.9386 13.8783 22.5H18.1195C17.9645 22.9386 17.6773 23.3183 17.2975 23.5869C16.9178 23.8555 16.4641 23.9999 15.9989 24ZM8.49891 21C9.22079 19.7587 9.99891 16.8825 9.99891 13.5C9.99891 11.9087 10.6311 10.3826 11.7563 9.25736C12.8815 8.13214 14.4076 7.5 15.9989 7.5C17.5902 7.5 19.1163 8.13214 20.2416 9.25736C21.3668 10.3826 21.9989 11.9087 21.9989 13.5C21.9989 16.8797 22.7752 19.7559 23.4989 21H8.49891Z" fill="#151515"/>
</svg>
