<svg width="20" height="20" viewBox="0 0 20 20" fill="none" xmlns="http://www.w3.org/2000/svg">
<path d="M9.68815 3.17725C13.2839 3.17725 16.1986 6.09196 16.1986 9.68766C16.1986 13.2834 13.2839 16.1981 9.68815 16.1981C6.09245 16.1981 3.17773 13.2834 3.17773 9.68766C3.17773 6.09196 6.09245 3.17725 9.68815 3.17725ZM9.68815 5.78141C9.51548 5.78141 9.34989 5.85 9.2278 5.9721C9.1057 6.09419 9.03711 6.25979 9.03711 6.43245V9.68766C9.03715 9.86032 9.10576 10.0259 9.22786 10.1479L11.181 12.1011C11.3038 12.2197 11.4682 12.2853 11.6389 12.2838C11.8096 12.2823 11.9729 12.2139 12.0936 12.0931C12.2143 11.9724 12.2828 11.8091 12.2843 11.6384C12.2858 11.4677 12.2202 11.3033 12.1016 11.1805L10.3392 9.41813V6.43245C10.3392 6.25979 10.2706 6.09419 10.1485 5.9721C10.0264 5.85 9.86082 5.78141 9.68815 5.78141Z" fill="#7F7F7F"/>
</svg>
