<svg width="24" height="24" viewBox="0 0 24 24" fill="none" xmlns="http://www.w3.org/2000/svg">
<path fill-rule="evenodd" clip-rule="evenodd" d="M7.27961 6.67495C6.11737 6.67495 5.1752 7.61713 5.1752 8.77936L5.1752 15.675C5.1752 16.8373 6.11738 17.7795 7.27962 17.7795H11.8045C12.1196 16.7047 13.1127 15.9201 14.2893 15.9201C15.4658 15.9201 16.4589 16.7047 16.774 17.7795H17.4708C18.633 17.7795 19.5752 16.8373 19.5752 15.675V8.77936C19.5752 7.61713 18.633 6.67495 17.4708 6.67495H16.774C16.4589 7.74968 15.4658 8.53433 14.2893 8.53433C13.1127 8.53433 12.1196 7.74968 11.8045 6.67495H7.27961ZM3.8252 8.77936C3.8252 6.87154 5.37179 5.32495 7.27961 5.32495H12.376C12.7414 5.32495 13.0404 5.61575 13.0507 5.98102C13.0694 6.6486 13.6169 7.18433 14.2893 7.18433C14.9616 7.18433 15.5091 6.6486 15.5278 5.98102C15.5381 5.61575 15.8371 5.32495 16.2026 5.32495H17.4708C19.3786 5.32495 20.9252 6.87154 20.9252 8.77936V15.675C20.9252 17.5829 19.3786 19.1295 17.4708 19.1295H16.2026C15.8371 19.1295 15.5381 18.8387 15.5278 18.4734C15.5091 17.8058 14.9616 17.2701 14.2893 17.2701C13.6169 17.2701 13.0694 17.8058 13.0507 18.4734C13.0404 18.8387 12.7414 19.1295 12.376 19.1295H7.27962C5.3718 19.1295 3.8252 17.5829 3.8252 15.675L3.8252 8.77936ZM14.1248 9.33072C14.4976 9.33072 14.7998 9.63292 14.7998 10.0057V10.1471C14.7998 10.5198 14.4976 10.8221 14.1248 10.8221C13.752 10.8221 13.4498 10.5198 13.4498 10.1471V10.0057C13.4498 9.63292 13.752 9.33072 14.1248 9.33072ZM14.1248 11.511C14.4976 11.511 14.7998 11.8132 14.7998 12.186V12.3274C14.7998 12.7001 14.4976 13.0024 14.1248 13.0024C13.752 13.0024 13.4498 12.7001 13.4498 12.3274V12.186C13.4498 11.8132 13.752 11.511 14.1248 11.511ZM14.1252 13.7006C14.498 13.7006 14.8002 14.0028 14.8002 14.3756V14.517C14.8002 14.8897 14.498 15.192 14.1252 15.192C13.7524 15.192 13.4502 14.8897 13.4502 14.517V14.3756C13.4502 14.0028 13.7524 13.7006 14.1252 13.7006Z" fill="#583FF5"/>
</svg>
