<svg width="24" height="24" viewBox="0 0 24 24" fill="none" xmlns="http://www.w3.org/2000/svg">
<path fill-rule="evenodd" clip-rule="evenodd" d="M12.1623 5.17483C9.1313 5.17483 6.67422 7.63191 6.67422 10.6629C6.67422 11.5328 7.00467 12.5318 7.55875 13.5784C8.10823 14.6163 8.84906 15.648 9.60316 16.5697C10.3555 17.4892 11.1097 18.2854 11.6766 18.8524C11.8609 19.0367 12.025 19.1963 12.1623 19.3276C12.2995 19.1963 12.4636 19.0367 12.6479 18.8524C13.2149 18.2854 13.9691 17.4892 14.7214 16.5697C15.4755 15.648 16.2163 14.6163 16.7658 13.5784C17.3199 12.5318 17.6503 11.5328 17.6503 10.6629C17.6503 7.63191 15.1932 5.17483 12.1623 5.17483ZM12.1623 20.2498C11.7138 20.7543 11.7137 20.7542 11.7136 20.7541L11.712 20.7527L11.7079 20.749L11.6931 20.7358C11.6804 20.7244 11.6621 20.7078 11.6384 20.6863C11.5912 20.6432 11.5227 20.5802 11.436 20.4991C11.2628 20.3369 11.0167 20.1017 10.722 19.807C10.1333 19.2183 9.34677 18.3882 8.55832 17.4245C7.77166 16.4631 6.97173 15.3548 6.36564 14.21C5.76415 13.0739 5.32422 11.8472 5.32422 10.6629C5.32422 6.88632 8.38572 3.82483 12.1623 3.82483C15.9388 3.82483 19.0003 6.88632 19.0003 10.6629C19.0003 11.8472 18.5604 13.0739 17.9589 14.21C17.3528 15.3548 16.5529 16.4631 15.7662 17.4245C14.9778 18.3882 14.1912 19.2183 13.6025 19.807C13.3078 20.1017 13.0617 20.3369 12.8885 20.4991C12.8018 20.5802 12.7334 20.6432 12.6861 20.6863C12.6624 20.7078 12.6441 20.7244 12.6314 20.7358L12.6167 20.749L12.6126 20.7527L12.6114 20.7538C12.6112 20.7539 12.6107 20.7543 12.1623 20.2498ZM12.1623 20.2498L12.6107 20.7543C12.355 20.9817 11.9693 20.9814 11.7136 20.7541L12.1623 20.2498ZM12.1625 9.11245C11.448 9.11245 10.8688 9.69169 10.8688 10.4062C10.8688 11.1207 11.448 11.7 12.1625 11.7C12.877 11.7 13.4563 11.1207 13.4563 10.4062C13.4563 9.69169 12.877 9.11245 12.1625 9.11245ZM9.51877 10.4062C9.51877 8.9461 10.7024 7.76245 12.1625 7.76245C13.6226 7.76245 14.8063 8.9461 14.8063 10.4062C14.8063 11.8663 13.6226 13.05 12.1625 13.05C10.7024 13.05 9.51877 11.8663 9.51877 10.4062Z" fill="#583FF5"/>
</svg>
