<svg width="18" height="18" viewBox="0 0 18 18" fill="none" xmlns="http://www.w3.org/2000/svg">
<path fill-rule="evenodd" clip-rule="evenodd" d="M3.91402 4.54583C4.58677 3.8357 5.50526 3.43127 6.46914 3.43127C7.01806 3.43127 7.51576 3.51421 8.00107 3.73732C8.35035 3.89789 8.67608 4.12323 9.00039 4.41626C9.3247 4.12323 9.65043 3.89789 9.99971 3.73732C10.485 3.51421 10.9827 3.43127 11.5316 3.43127C12.4955 3.43127 13.414 3.8357 14.0868 4.54583C14.7586 5.25504 15.1316 6.21135 15.1316 7.20315C15.1316 8.78082 14.1442 9.94923 13.3037 10.8188L9.3679 14.9732C9.2723 15.0741 9.1394 15.1313 9.00039 15.1313C8.86138 15.1313 8.72848 15.0741 8.63288 14.9732L4.6983 10.82C3.84861 9.95264 2.86914 8.78549 2.86914 7.20315C2.86914 6.21135 3.24214 5.25504 3.91402 4.54583ZM6.46914 4.44377C5.792 4.44377 5.13667 4.72746 4.64904 5.24217C4.16054 5.75782 3.88164 6.46275 3.88164 7.20315C3.88164 8.35017 4.58734 9.26026 5.42445 10.1144L5.4304 10.1206L9.00039 13.8889L12.5739 10.1169C13.4093 9.25287 14.1191 8.34372 14.1191 7.20315C14.1191 6.46275 13.8402 5.75782 13.3517 5.24217C12.8641 4.72746 12.2088 4.44377 11.5316 4.44377C11.0906 4.44377 10.7445 4.50928 10.4226 4.65726C10.0964 4.80722 9.76218 5.05701 9.3679 5.4732C9.2723 5.57411 9.1394 5.63127 9.00039 5.63127C8.86138 5.63127 8.72848 5.57411 8.63288 5.4732C8.2386 5.05701 7.90433 4.80722 7.57814 4.65726C7.25627 4.50928 6.91023 4.44377 6.46914 4.44377Z" fill="#583FF5"/>
</svg>
