<svg width="20" height="20" viewBox="0 0 20 20" fill="none" xmlns="http://www.w3.org/2000/svg">
<path d="M15.6252 9.07123V13.6959C15.6252 14.0463 15.4935 14.3824 15.2591 14.6302C15.0247 14.878 14.7068 15.0172 14.3752 15.0172H5.62524C5.29372 15.0172 4.97578 14.878 4.74136 14.6302C4.50694 14.3824 4.37524 14.0463 4.37524 13.6959V9.07123H15.6252ZM12.5002 3.12524C12.666 3.12524 12.825 3.19485 12.9422 3.31875C13.0594 3.44265 13.1252 3.61069 13.1252 3.78591V4.44657H14.3752C14.7068 4.44657 15.0247 4.58579 15.2591 4.83358C15.4935 5.08138 15.6252 5.41747 15.6252 5.7679V7.7499H4.37524V5.7679C4.37524 5.41747 4.50694 5.08138 4.74136 4.83358C4.97578 4.58579 5.29372 4.44657 5.62524 4.44657H6.87524V3.78591C6.87524 3.61069 6.94109 3.44265 7.0583 3.31875C7.17551 3.19485 7.33448 3.12524 7.50024 3.12524C7.666 3.12524 7.82498 3.19485 7.94219 3.31875C8.0594 3.44265 8.12524 3.61069 8.12524 3.78591V4.44657H11.8752V3.78591C11.8752 3.61069 11.9411 3.44265 12.0583 3.31875C12.1755 3.19485 12.3345 3.12524 12.5002 3.12524Z" fill="#7F7F7F"/>
</svg>
