<svg width="32" height="32" viewBox="0 0 32 32" fill="none" xmlns="http://www.w3.org/2000/svg">
<path d="M21.6427 24.4473C21.7272 24.5318 21.7942 24.632 21.8399 24.7424C21.8856 24.8527 21.9091 24.971 21.9091 25.0904C21.9091 25.2099 21.8856 25.3282 21.8399 25.4385C21.7942 25.5489 21.7272 25.6491 21.6427 25.7336C21.5583 25.8181 21.458 25.8851 21.3476 25.9308C21.2373 25.9765 21.119 26 20.9996 26C20.8802 26 20.7619 25.9765 20.6515 25.9308C20.5412 25.8851 20.4409 25.8181 20.3565 25.7336L11.2666 16.6431C11.1821 16.5587 11.115 16.4585 11.0693 16.3481C11.0235 16.2378 11 16.1195 11 16C11 15.8805 11.0235 15.7622 11.0693 15.6519C11.115 15.5415 11.1821 15.4413 11.2666 15.3568L20.3565 6.2664C20.527 6.09583 20.7584 6 20.9996 6C21.2408 6 21.4721 6.09583 21.6427 6.2664C21.8133 6.43697 21.9091 6.66832 21.9091 6.90955C21.9091 7.15078 21.8133 7.38213 21.6427 7.5527L13.1948 16L21.6427 24.4473Z" fill="#151515"/>
</svg>
