<svg width="24" height="24" viewBox="0 0 24 24" fill="none" xmlns="http://www.w3.org/2000/svg">
<path fill-rule="evenodd" clip-rule="evenodd" d="M3.82509 6.46894C3.8251 5.00884 5.00874 3.8252 6.46884 3.8252H15.3285C16.7886 3.8252 17.9722 5.00884 17.9722 6.46895V10.4065C17.9722 10.7793 17.67 11.0815 17.2972 11.0815C16.9244 11.0815 16.6222 10.7793 16.6222 10.4065V6.46895C16.6222 5.75443 16.043 5.1752 15.3285 5.1752H6.46884C5.75433 5.1752 5.17509 5.75442 5.17509 6.46894L5.17501 18.2814C5.17501 18.996 5.75424 19.5752 6.46876 19.5752H11.3907C11.7634 19.5752 12.0657 19.8774 12.0657 20.2502C12.0657 20.623 11.7634 20.9252 11.3907 20.9252H6.46876C5.00865 20.9252 3.825 19.7415 3.82501 18.2814L3.82509 6.46894ZM7.27064 8.43771C7.27064 8.06491 7.57285 7.76271 7.94564 7.76271H13.8519C14.2247 7.76271 14.5269 8.06491 14.5269 8.43771C14.5269 8.8105 14.2247 9.11271 13.8519 9.11271H7.94564C7.57285 9.11271 7.27064 8.8105 7.27064 8.43771ZM7.27064 11.3908C7.27064 11.018 7.57285 10.7158 7.94564 10.7158H13.8519C14.2247 10.7158 14.5269 11.018 14.5269 11.3908C14.5269 11.7636 14.2247 12.0658 13.8519 12.0658H7.94564C7.57285 12.0658 7.27064 11.7636 7.27064 11.3908ZM7.27064 14.344C7.27064 13.9712 7.57285 13.669 7.94564 13.669H10.8988C11.2716 13.669 11.5738 13.9712 11.5738 14.344C11.5738 14.7168 11.2716 15.019 10.8988 15.019H7.94564C7.57285 15.019 7.27064 14.7168 7.27064 14.344ZM16.3125 15.019C15.3262 15.019 14.5266 15.8186 14.5266 16.8049C14.5266 17.7913 15.3262 18.5909 16.3125 18.5909C17.2989 18.5909 18.0985 17.7913 18.0985 16.8049C18.0985 15.8186 17.2989 15.019 16.3125 15.019ZM13.1766 16.8049C13.1766 15.073 14.5806 13.669 16.3125 13.669C18.0445 13.669 19.4485 15.073 19.4485 16.8049C19.4485 17.4266 19.2676 18.006 18.9556 18.4934L19.743 19.2808C20.0066 19.5444 20.0066 19.9717 19.743 20.2353C19.4794 20.4989 19.052 20.4989 18.7884 20.2353L18.001 19.448C17.5136 19.76 16.9342 19.9409 16.3125 19.9409C14.5806 19.9409 13.1766 18.5368 13.1766 16.8049Z" fill="#583FF5"/>
</svg>
