<svg width="100" height="100" viewBox="0 0 100 100" fill="none" xmlns="http://www.w3.org/2000/svg">
<path d="M100 50C100 77.6142 77.6142 100 50 100C22.3858 100 0 77.6142 0 50C0 22.3858 22.3858 0 50 0C77.6142 0 100 22.3858 100 50Z" fill="#583FF5"/>
<path fill-rule="evenodd" clip-rule="evenodd" d="M66.6418 28.1922L64.3953 33.3595C63.8431 34.6297 62.9439 36.1972 61.5252 37.2095C60.1066 38.2218 58.3319 38.5624 56.9511 38.6716L51.3341 39.1155L53.5806 33.9481C54.1328 32.678 55.0321 31.1105 56.4508 30.0982C57.8694 29.0859 59.6441 28.7452 61.0248 28.6361L66.6418 28.1922Z" fill="white"/>
<path fill-rule="evenodd" clip-rule="evenodd" d="M50 34.3066C38.9543 34.3066 30 43.2609 30 54.3066C30 65.3523 38.9543 74.3066 50 74.3066C61.0457 74.3066 70 65.3523 70 54.3066C70 43.2609 61.0457 34.3066 50 34.3066ZM55.9368 61.8101C57.9032 61.8101 59.4972 60.216 59.4972 58.2496C59.4972 56.2832 57.9032 54.6891 55.9368 54.6891C53.9704 54.6891 52.3763 56.2832 52.3763 58.2496C52.3763 60.216 53.9704 61.8101 55.9368 61.8101ZM49.3919 58.8287C49.3919 59.4842 48.8605 60.0156 48.2051 60.0156C47.5496 60.0156 47.0182 59.4842 47.0182 58.8287C47.0182 58.1733 47.5496 57.6419 48.2051 57.6419C48.8605 57.6419 49.3919 58.1733 49.3919 58.8287Z" fill="white"/>
</svg>
