<svg width="16" height="16" viewBox="0 0 16 16" fill="none" xmlns="http://www.w3.org/2000/svg">
<path d="M12.2237 5.67865C12.2659 5.63642 12.316 5.60292 12.3712 5.58007C12.4264 5.55722 12.4855 5.54546 12.5452 5.54546C12.6049 5.54546 12.6641 5.55722 12.7193 5.58007C12.7744 5.60292 12.8246 5.63642 12.8668 5.67865C12.909 5.72087 12.9425 5.77101 12.9654 5.82618C12.9882 5.88135 13 5.94048 13 6.0002C13 6.05992 12.9882 6.11905 12.9654 6.17423C12.9425 6.2294 12.909 6.27953 12.8668 6.32176L8.32158 10.8667C8.27936 10.909 8.22923 10.9425 8.17406 10.9654C8.11888 10.9882 8.05973 11 8 11C7.94027 11 7.88112 10.9882 7.82595 10.9654C7.77077 10.9425 7.72064 10.909 7.67843 10.8667L3.1332 6.32176C3.04791 6.23648 3 6.12081 3 6.0002C3 5.8796 3.04791 5.76393 3.1332 5.67865C3.21849 5.59337 3.33416 5.54545 3.45478 5.54545C3.57539 5.54545 3.69106 5.59337 3.77635 5.67865L8 9.90261L12.2237 5.67865Z" fill="#7F7F7F"/>
</svg>
