<svg width="32" height="32" viewBox="0 0 32 32" fill="none" xmlns="http://www.w3.org/2000/svg">
<path d="M16 9.71433C15.1909 9.71433 14.4 9.94474 13.7272 10.3764C13.0545 10.8081 12.5301 11.4217 12.2205 12.1395C11.9109 12.8574 11.8298 13.6473 11.9877 14.4094C12.1455 15.1715 12.5352 15.8715 13.1073 16.4209C13.6794 16.9703 14.4083 17.3445 15.2019 17.4961C15.9955 17.6477 16.818 17.5699 17.5655 17.2725C18.313 16.9752 18.952 16.4716 19.4015 15.8256C19.851 15.1795 20.0909 14.4199 20.0909 13.6429C20.0909 12.601 19.6599 11.6018 18.8927 10.865C18.1255 10.1282 17.085 9.71433 16 9.71433ZM16 16.0001C15.5145 16.0001 15.04 15.8619 14.6363 15.6029C14.2327 15.3438 13.9181 14.9757 13.7323 14.545C13.5465 14.1143 13.4979 13.6403 13.5926 13.1831C13.6873 12.7258 13.9211 12.3058 14.2644 11.9762C14.6076 11.6465 15.045 11.422 15.5211 11.3311C15.9973 11.2401 16.4908 11.2868 16.9393 11.4652C17.3878 11.6436 17.7712 11.9457 18.0409 12.3334C18.3106 12.721 18.4545 13.1767 18.4545 13.6429C18.4545 14.2681 18.1959 14.8677 17.7356 15.3097C17.2753 15.7518 16.651 16.0001 16 16.0001ZM16 5C13.6139 5.0026 11.3263 5.91403 9.63903 7.53433C7.95179 9.15463 7.00271 11.3515 7 13.6429C7 16.7269 8.48398 19.9955 11.2955 23.0962C12.5587 24.4973 13.9806 25.7589 15.5347 26.8578C15.6722 26.9504 15.8361 27 16.0041 27C16.1721 27 16.336 26.9504 16.4735 26.8578C18.0247 25.7585 19.4438 24.4968 20.7045 23.0962C23.5119 19.9955 25 16.7269 25 13.6429C24.9973 11.3515 24.0482 9.15463 22.361 7.53433C20.6737 5.91403 18.3861 5.0026 16 5ZM16 25.2323C14.3094 23.9555 8.63636 19.2658 8.63636 13.6429C8.63636 11.7675 9.41217 9.9688 10.7931 8.64264C12.1741 7.31647 14.047 6.57144 16 6.57144C17.953 6.57144 19.8259 7.31647 21.2069 8.64264C22.5878 9.9688 23.3636 11.7675 23.3636 13.6429C23.3636 19.2638 17.6906 23.9555 16 25.2323Z" fill="#151515"/>
</svg>
