<svg width="28" height="28" viewBox="0 0 28 28" fill="none" xmlns="http://www.w3.org/2000/svg">
<path d="M14 8.50004C13.292 8.50004 12.6 8.70165 12.0113 9.07937C11.4227 9.45709 10.9639 9.99396 10.6929 10.6221C10.422 11.2502 10.3511 11.9414 10.4892 12.6082C10.6274 13.275 10.9683 13.8875 11.4689 14.3683C11.9695 14.849 12.6073 15.1764 13.3017 15.3091C13.996 15.4417 14.7158 15.3736 15.3698 15.1134C16.0239 14.8533 16.583 14.4127 16.9763 13.8474C17.3696 13.2821 17.5795 12.6175 17.5795 11.9376C17.5795 11.0259 17.2024 10.1515 16.5311 9.50687C15.8598 8.86221 14.9494 8.50004 14 8.50004ZM14 14.0001C13.5752 14.0001 13.16 13.8791 12.8068 13.6525C12.4536 13.4259 12.1783 13.1037 12.0158 12.7269C11.8532 12.35 11.8107 11.9353 11.8935 11.5352C11.9764 11.1351 12.181 10.7676 12.4813 10.4792C12.7817 10.1907 13.1644 9.99427 13.581 9.91469C13.9976 9.8351 14.4295 9.87595 14.8219 10.0321C15.2143 10.1882 15.5498 10.4525 15.7858 10.7917C16.0218 11.1309 16.1477 11.5296 16.1477 11.9376C16.1477 12.4846 15.9214 13.0092 15.5187 13.396C15.1159 13.7828 14.5696 14.0001 14 14.0001ZM14 4.375C11.9121 4.37727 9.91049 5.17477 8.43415 6.59254C6.95781 8.0103 6.12737 9.93255 6.125 11.9376C6.125 14.636 7.42348 17.4961 9.88352 20.2091C10.9889 21.4351 12.233 22.5391 13.5928 23.5006C13.7132 23.5816 13.8566 23.625 14.0036 23.625C14.1505 23.625 14.294 23.5816 14.4143 23.5006C15.7717 22.5387 17.0133 21.4347 18.1165 20.2091C20.5729 17.4961 21.875 14.636 21.875 11.9376C21.8726 9.93255 21.0422 8.0103 19.5658 6.59254C18.0895 5.17477 16.0879 4.37727 14 4.375ZM14 22.0783C12.5208 20.9611 7.55682 16.8575 7.55682 11.9376C7.55682 10.2965 8.23565 8.7227 9.44398 7.56231C10.6523 6.40192 12.2912 5.75001 14 5.75001C15.7088 5.75001 17.3477 6.40192 18.556 7.56231C19.7643 8.7227 20.4432 10.2965 20.4432 11.9376C20.4432 16.8558 15.4792 20.9611 14 22.0783Z" fill="#262627"/>
</svg>
