<svg width="20" height="20" viewBox="0 0 20 20" fill="none" xmlns="http://www.w3.org/2000/svg">
<path fill-rule="evenodd" clip-rule="evenodd" d="M12.3293 11.6816L13.2398 8.21641L11.9092 9.06376C11.6439 9.23292 11.3229 9.2913 11.015 9.22635C10.7071 9.1614 10.437 8.97832 10.2626 8.71641L9.387 7.4009L8.5108 8.71701C8.33633 8.97882 8.06616 9.16178 7.75829 9.22662C7.45042 9.29145 7.1294 9.23298 6.86416 9.06376L5.53424 8.21641L6.44469 11.6816H12.3293ZM5.85695 7.70919C5.39602 7.41532 4.81368 7.8402 4.95251 8.36905L5.86356 11.8342C5.89729 11.9626 5.9726 12.0763 6.07774 12.1574C6.18287 12.2385 6.31191 12.2825 6.44469 12.2825H12.3293C12.4621 12.2825 12.5911 12.2385 12.6963 12.1574C12.8014 12.0763 12.8767 11.9626 12.9104 11.8342L13.8215 8.36905C13.9597 7.8402 13.378 7.41593 12.917 7.70919L11.5865 8.55655C11.4539 8.64119 11.2935 8.67047 11.1395 8.63811C10.9856 8.60575 10.8505 8.51433 10.7632 8.38347L9.887 7.06737C9.83212 6.98506 9.75777 6.91758 9.67055 6.8709C9.58332 6.82423 9.48593 6.7998 9.387 6.7998C9.28807 6.7998 9.19068 6.82423 9.10346 6.8709C9.01623 6.91758 8.94188 6.98506 8.887 7.06737L8.0108 8.38347C7.92361 8.51443 7.78855 8.60597 7.63461 8.63845C7.48067 8.67092 7.32014 8.64173 7.18748 8.55715L5.85695 7.70919Z" fill="#7F7F7F"/>
<path d="M9.9544 5.74822C9.95456 5.89884 9.89488 6.04335 9.78849 6.14996C9.6821 6.25658 9.53771 6.31657 9.38709 6.31673C9.23647 6.31689 9.09196 6.25721 8.98535 6.15081C8.87873 6.04442 8.81874 5.90004 8.81858 5.74942C8.81843 5.5988 8.87811 5.45429 8.9845 5.34767C9.09089 5.24105 9.23527 5.18107 9.38589 5.18091C9.53651 5.18075 9.68102 5.24043 9.78764 5.34682C9.89426 5.45321 9.95424 5.5976 9.9544 5.74822ZM14.4953 6.88464C14.4953 6.95921 14.4807 7.03307 14.4522 7.10199C14.4236 7.1709 14.3819 7.23353 14.3291 7.28629C14.2764 7.33906 14.2139 7.38092 14.145 7.4095C14.0761 7.43808 14.0022 7.4528 13.9277 7.45284C13.8531 7.45288 13.7792 7.43823 13.7103 7.40973C13.6414 7.38123 13.5788 7.33943 13.526 7.28672C13.4732 7.23401 13.4314 7.17143 13.4028 7.10254C13.3742 7.03366 13.3595 6.95981 13.3594 6.88524C13.3594 6.73462 13.4193 6.59017 13.5258 6.48366C13.6323 6.37716 13.7767 6.31733 13.9274 6.31733C14.078 6.31733 14.2224 6.37716 14.3289 6.48366C14.4354 6.59017 14.4953 6.73402 14.4953 6.88464ZM5.41414 6.88464C5.41422 7.03525 5.35446 7.17974 5.24801 7.28629C5.14157 7.39285 4.99715 7.45276 4.84653 7.45284C4.77195 7.45288 4.69809 7.43823 4.62918 7.40973C4.56026 7.38123 4.49763 7.33943 4.44487 7.28672C4.33831 7.18027 4.2784 7.03585 4.27832 6.88524C4.27832 6.73462 4.33815 6.59017 4.44466 6.48366C4.55116 6.37716 4.69561 6.31733 4.84623 6.31733C4.99685 6.31733 5.1413 6.37716 5.2478 6.48366C5.3543 6.59017 5.41414 6.73402 5.41414 6.88464Z" fill="#7F7F7F"/>
<path fill-rule="evenodd" clip-rule="evenodd" d="M6.53247 12.9929C6.53247 12.9132 6.56413 12.8367 6.62048 12.7804C6.67683 12.724 6.75326 12.6924 6.83295 12.6924H12.0836C12.1632 12.6924 12.2397 12.724 12.296 12.7804C12.3524 12.8367 12.384 12.9132 12.384 12.9929C12.384 13.0726 12.3524 13.149 12.296 13.2053C12.2397 13.2617 12.1632 13.2933 12.0836 13.2933H6.83295C6.75326 13.2933 6.67683 13.2617 6.62048 13.2053C6.56413 13.149 6.53247 13.0726 6.53247 12.9929Z" fill="#7F7F7F"/>
<path fill-rule="evenodd" clip-rule="evenodd" d="M9.38702 16.2981C13.2037 16.2981 16.2981 13.2037 16.2981 9.38702C16.2981 5.57031 13.2037 2.47596 9.38702 2.47596C5.57031 2.47596 2.47596 5.57031 2.47596 9.38702C2.47596 13.2037 5.57031 16.2981 9.38702 16.2981ZM9.38702 16.899C13.5361 16.899 16.899 13.5361 16.899 9.38702C16.899 5.23798 13.5361 1.875 9.38702 1.875C5.23798 1.875 1.875 5.23798 1.875 9.38702C1.875 13.5361 5.23798 16.899 9.38702 16.899Z" fill="#7F7F7F"/>
</svg>
