<svg width="32" height="32" viewBox="0 0 32 32" fill="none" xmlns="http://www.w3.org/2000/svg">
<path d="M8.59375 14.1663V25.1666C8.59375 25.3112 8.71275 25.4285 8.85938 25.4285H22.1406C22.2111 25.4285 22.2786 25.4009 22.3285 25.3518C22.3783 25.3027 22.4062 25.2361 22.4062 25.1666V14.1663C22.4062 14.0968 22.3783 14.0302 22.3285 13.9811C22.2786 13.9319 22.2111 13.9044 22.1406 13.9044H19.4844C19.273 13.9044 19.0703 13.8216 18.9209 13.6742C18.7715 13.5269 18.6875 13.327 18.6875 13.1186C18.6875 12.9102 18.7715 12.7104 18.9209 12.563C19.0703 12.4157 19.273 12.3329 19.4844 12.3329H22.1406C23.167 12.3329 24 13.1542 24 14.1663V25.1666C24 25.6529 23.8041 26.1192 23.4554 26.463C23.1067 26.8068 22.6338 27 22.1406 27H8.85938C8.36624 27 7.8933 26.8068 7.5446 26.463C7.1959 26.1192 7 25.6529 7 25.1666V14.1663C7 13.1542 7.833 12.3329 8.85938 12.3329H11.5156C11.727 12.3329 11.9297 12.4157 12.0791 12.563C12.2285 12.7104 12.3125 12.9102 12.3125 13.1186C12.3125 13.327 12.2285 13.5269 12.0791 13.6742C11.9297 13.8216 11.727 13.9044 11.5156 13.9044H8.85938C8.78893 13.9044 8.72136 13.9319 8.67155 13.9811C8.62174 14.0302 8.59375 14.0968 8.59375 14.1663ZM16.0631 5.22979L19.5162 8.63466C19.6211 8.7307 19.6978 8.85286 19.7382 8.98827C19.7786 9.12368 19.7812 9.26732 19.7458 9.40406C19.7103 9.54081 19.6381 9.66559 19.5367 9.76526C19.4354 9.86493 19.3086 9.93581 19.1699 9.97042C19.0314 10.0054 18.8858 10.003 18.7486 9.96335C18.6113 9.92371 18.4875 9.84834 18.39 9.74517L16.2969 7.6813V18.8807C16.2969 19.0891 16.2129 19.2889 16.0635 19.4363C15.914 19.5837 15.7113 19.6664 15.5 19.6664C15.2887 19.6664 15.086 19.5837 14.9365 19.4363C14.7871 19.2889 14.7031 19.0891 14.7031 18.8807V7.6813L12.61 9.74517C12.4588 9.88389 12.259 9.95943 12.0526 9.95591C11.8461 9.9524 11.6491 9.8701 11.5029 9.72631C11.3571 9.58215 11.2736 9.38787 11.27 9.18429C11.2665 8.98071 11.3431 8.7837 11.4838 8.63466L14.9369 5.22979C15.0863 5.08265 15.2888 5 15.5 5C15.7112 5 15.9137 5.08265 16.0631 5.22979Z" fill="#151515"/>
</svg>
