<svg width="20" height="20" viewBox="0 0 20 20" fill="none" xmlns="http://www.w3.org/2000/svg">
<path fill-rule="evenodd" clip-rule="evenodd" d="M12.4621 3.60248C13.072 2.99224 14.061 2.99183 14.6714 3.60155L16.3968 5.32495C17.0075 5.93492 17.0079 6.92449 16.3977 7.53498L8.25299 15.6842C8.03536 15.9019 7.75826 16.0505 7.45647 16.1113L3.81815 16.8444C3.63344 16.8817 3.44237 16.8239 3.30918 16.6907C3.17599 16.5574 3.11836 16.3663 3.15569 16.1816L3.89011 12.5476C3.95097 12.2464 4.09928 11.9698 4.31649 11.7525L12.4621 3.60248ZM13.8764 4.3975C13.7055 4.22677 13.4285 4.22689 13.2578 4.39776L11.9329 5.7234L14.2759 8.06649L15.602 6.7397C15.7729 6.56877 15.7727 6.29169 15.6018 6.12089L13.8764 4.3975ZM13.4807 8.8622L11.1376 6.51911L5.1122 12.5478C5.05138 12.6087 5.00985 12.6861 4.99281 12.7704L4.42616 15.5743L7.23425 15.0085C7.31876 14.9915 7.39634 14.9499 7.45728 14.8889L13.4807 8.8622Z" fill="#583FF5"/>
</svg>
