<svg width="32" height="32" viewBox="0 0 32 32" fill="none" xmlns="http://www.w3.org/2000/svg">
<path fill-rule="evenodd" clip-rule="evenodd" d="M15.399 6.19568C15.7049 6.04359 16.0706 6.0778 16.343 6.284L27.5428 14.7627C27.762 14.9286 27.8933 15.1856 27.8994 15.4605C27.9054 15.7353 27.7855 15.9978 27.5739 16.1732L16.374 25.4545C16.1054 25.6771 15.7325 25.7244 15.4169 25.5761C15.1012 25.4277 14.8997 25.1103 14.8997 24.7616L14.8997 20.6331C12.7868 20.6084 10.8793 21.7044 9.38532 22.9849C8.5607 23.6917 7.89725 24.4257 7.43959 24.9844C7.21146 25.2629 7.03629 25.4956 6.91959 25.6565C6.86128 25.7369 6.81769 25.7992 6.78951 25.8402C6.77543 25.8606 6.7652 25.8757 6.75893 25.8851L6.75249 25.8947L6.75178 25.8958C6.53345 26.2281 6.12292 26.3777 5.74193 26.2639C5.36077 26.15 5.09961 25.7994 5.09961 25.4016H5.99961C5.09961 25.4016 5.09961 25.402 5.09961 25.4016L5.09961 25.3995L5.09962 25.3964L5.09967 25.3872L5.1 25.3567C5.10036 25.3311 5.10105 25.295 5.10238 25.2491C5.10504 25.1574 5.11025 25.0261 5.12045 24.8603C5.14085 24.529 5.18128 24.0585 5.26153 23.4886C5.42162 22.3516 5.74226 20.8039 6.38761 19.1708C7.62456 16.0406 10.084 12.5436 14.8997 11.113L14.8997 7.00157C14.8997 6.65995 15.0931 6.34777 15.399 6.19568ZM7.2631 22.5001C7.55251 22.2106 7.87018 21.9128 8.2139 21.6182C10.0399 20.0531 12.7466 18.4563 15.927 18.9106C16.3704 18.974 16.6997 19.3537 16.6997 19.8016L16.6997 22.8469L25.5506 15.5121L16.6997 8.81171L16.6997 11.8016C16.6997 12.2162 16.4165 12.5771 16.0138 12.6757C11.4844 13.785 9.2173 16.9078 8.06164 19.8323C7.68923 20.7747 7.43561 21.6905 7.2631 22.5001Z" fill="#151515"/>
</svg>
