<svg width="48" height="48" viewBox="0 0 48 48" fill="none" xmlns="http://www.w3.org/2000/svg">
<path fill-rule="evenodd" clip-rule="evenodd" d="M24 41.3C31.3454 41.3 37.3 35.3454 37.3 28C37.3 20.6546 31.3454 14.7 24 14.7C16.6546 14.7 10.7 20.6546 10.7 28C10.7 35.3454 16.6546 41.3 24 41.3ZM24 44C32.8366 44 40 36.8366 40 28C40 19.1634 32.8366 12 24 12C15.1634 12 8 19.1634 8 28C8 36.8366 15.1634 44 24 44Z" fill="#7F7F7F"/>
<path fill-rule="evenodd" clip-rule="evenodd" d="M28.9772 5.93168C27.9208 6.21965 26.8003 6.69971 26 7.5C25.1997 8.30029 24.7196 9.42082 24.4317 10.4772C24 12.0607 24 13.5 24 13.5C24 13.5 25.4393 13.5 27.0228 13.0683C28.0792 12.7803 29.1997 12.3003 30 11.5C30.8003 10.6997 31.2803 9.57918 31.5683 8.52284C32 6.9393 32 5.5 32 5.5C32 5.5 30.5607 5.5 28.9772 5.93168Z" fill="#7F7F7F"/>
<path d="M20 30C20 31.1046 19.1046 32 18 32C16.8954 32 16 31.1046 16 30C16 28.8954 16.8954 28 18 28C19.1046 28 20 28.8954 20 30Z" fill="#7F7F7F"/>
<path d="M32 31C32 32.6569 30.6569 34 29 34C27.3431 34 26 32.6569 26 31C26 29.3431 27.3431 28 29 28C30.6569 28 32 29.3431 32 31Z" fill="#7F7F7F"/>
<path d="M26 36C26 37.1046 25.1046 38 24 38C22.8954 38 22 37.1046 22 36C22 34.8954 22.8954 34 24 34C25.1046 34 26 34.8954 26 36Z" fill="#7F7F7F"/>
</svg>
