<svg width="24" height="24" viewBox="0 0 24 24" fill="none" xmlns="http://www.w3.org/2000/svg">
<path fill-rule="evenodd" clip-rule="evenodd" d="M12.3742 5.17495C8.39777 5.17495 5.17422 8.3985 5.17422 12.375C5.17422 16.3514 8.39777 19.575 12.3742 19.575C16.3507 19.575 19.5742 16.3514 19.5742 12.375C19.5742 8.3985 16.3507 5.17495 12.3742 5.17495ZM3.82422 12.375C3.82422 7.65292 7.65218 3.82495 12.3742 3.82495C17.0963 3.82495 20.9242 7.65292 20.9242 12.375C20.9242 17.097 17.0963 20.9249 12.3742 20.9249C7.65218 20.9249 3.82422 17.097 3.82422 12.375ZM12.3742 8.56821C12.747 8.56821 13.0492 8.87042 13.0492 9.24321V12.8728L15.5408 13.7033C15.8945 13.8212 16.0856 14.2035 15.9677 14.5572C15.8498 14.9108 15.4676 15.1019 15.1139 14.9841L12.1608 13.9997C11.8851 13.9078 11.6992 13.6499 11.6992 13.3593V9.24321C11.6992 8.87042 12.0014 8.56821 12.3742 8.56821Z" fill="#583FF5"/>
</svg>
