<svg width="99" height="32" viewBox="0 0 99 32" fill="none" xmlns="http://www.w3.org/2000/svg">
<path d="M14.4473 17.5183L17.5592 14.4463V22.6134L14.4473 25.5602V17.5183Z" fill="white" fill-opacity="0.5"/>
<path d="M6.00049 9.07198L9.1124 6V14.1671L6.00049 17.114V9.07198Z" fill="white" fill-opacity="0.5"/>
<path d="M22.702 25.5605L26.0044 22.4486L17.5745 22.4486L14.4459 25.4741L22.702 25.5605Z" fill="white" fill-opacity="0.5"/>
<path d="M14.3832 17.1143L17.5586 14.4469L9.45292 14.4469L6.44463 17.0402L14.3832 17.1143Z" fill="white" fill-opacity="0.5"/>
<path d="M35.1583 22.344V14.104H36.9343V14.84H36.9983C37.809 14.2533 38.7103 13.96 39.7023 13.96C40.513 13.96 41.1156 14.1413 41.5103 14.504C41.905 14.856 42.1023 15.432 42.1023 16.232V22.344H40.2463V16.664C40.2463 16.2373 40.1503 15.9387 39.9583 15.768C39.7663 15.5867 39.3983 15.496 38.8543 15.496C38.2356 15.496 37.617 15.6453 36.9983 15.944V22.344H35.1583ZM46.3004 22.488C45.5324 22.488 44.9191 22.2907 44.4604 21.896C44.0018 21.5013 43.7724 20.92 43.7724 20.152C43.7724 18.7653 44.6524 17.944 46.4124 17.688L48.3484 17.464V16.84C48.3484 16.296 48.2098 15.9333 47.9324 15.752C47.6658 15.56 47.1751 15.464 46.4604 15.464C45.7884 15.464 45.1218 15.5387 44.4604 15.688V14.424C45.2178 14.1253 46.1244 13.976 47.1804 13.976C49.1858 13.976 50.1884 14.792 50.1884 16.424V22.344H48.6684L48.5244 21.672H48.4284C47.9591 22.216 47.2498 22.488 46.3004 22.488ZM46.8604 21.192C47.5004 21.192 47.9964 21.0267 48.3484 20.696V18.664L46.8284 18.824C46.4124 18.856 46.0978 18.968 45.8844 19.16C45.6818 19.352 45.5804 19.6507 45.5804 20.056C45.5804 20.4293 45.6924 20.712 45.9164 20.904C46.1511 21.096 46.4658 21.192 46.8604 21.192ZM52.3302 22.344V14.104H54.1062V14.84H54.1702C54.9809 14.2533 55.8822 13.96 56.8742 13.96C57.6849 13.96 58.2875 14.1413 58.6822 14.504C59.0769 14.856 59.2742 15.432 59.2742 16.232V22.344H57.4182V16.664C57.4182 16.2373 57.3222 15.9387 57.1302 15.768C56.9382 15.5867 56.5702 15.496 56.0262 15.496C55.4075 15.496 54.7889 15.6453 54.1702 15.944V22.344H52.3302ZM63.4723 22.488C62.7043 22.488 62.091 22.2907 61.6323 21.896C61.1736 21.5013 60.9443 20.92 60.9443 20.152C60.9443 18.7653 61.8243 17.944 63.5843 17.688L65.5203 17.464V16.84C65.5203 16.296 65.3816 15.9333 65.1043 15.752C64.8376 15.56 64.347 15.464 63.6323 15.464C62.9603 15.464 62.2936 15.5387 61.6323 15.688V14.424C62.3896 14.1253 63.2963 13.976 64.3523 13.976C66.3576 13.976 67.3603 14.792 67.3603 16.424V22.344H65.8403L65.6963 21.672H65.6003C65.131 22.216 64.4216 22.488 63.4723 22.488ZM64.0323 21.192C64.6723 21.192 65.1683 21.0267 65.5203 20.696V18.664L64.0003 18.824C63.5843 18.856 63.2696 18.968 63.0563 19.16C62.8536 19.352 62.7523 19.6507 62.7523 20.056C62.7523 20.4293 62.8643 20.712 63.0883 20.904C63.323 21.096 63.6376 21.192 64.0323 21.192ZM69.5341 22.344V10.648H71.3901V22.344H69.5341ZM75.6754 22.488C74.9074 22.488 74.2941 22.2907 73.8354 21.896C73.3768 21.5013 73.1474 20.92 73.1474 20.152C73.1474 18.7653 74.0274 17.944 75.7874 17.688L77.7234 17.464V16.84C77.7234 16.296 77.5848 15.9333 77.3074 15.752C77.0408 15.56 76.5501 15.464 75.8354 15.464C75.1634 15.464 74.4968 15.5387 73.8354 15.688V14.424C74.5928 14.1253 75.4994 13.976 76.5554 13.976C78.5608 13.976 79.5634 14.792 79.5634 16.424V22.344H78.0434L77.8994 21.672H77.8034C77.3341 22.216 76.6248 22.488 75.6754 22.488ZM76.2354 21.192C76.8754 21.192 77.3714 21.0267 77.7234 20.696V18.664L76.2034 18.824C75.7874 18.856 75.4728 18.968 75.2594 19.16C75.0568 19.352 74.9554 19.6507 74.9554 20.056C74.9554 20.4293 75.0674 20.712 75.2914 20.904C75.5261 21.096 75.8408 21.192 76.2354 21.192ZM81.7052 22.344V14.104H83.4812V14.84H83.5452C84.3559 14.2533 85.2572 13.96 86.2492 13.96C87.0599 13.96 87.6625 14.1413 88.0572 14.504C88.4519 14.856 88.6492 15.432 88.6492 16.232V22.344H86.7932V16.664C86.7932 16.2373 86.6972 15.9387 86.5052 15.768C86.3132 15.5867 85.9452 15.496 85.4012 15.496C84.7825 15.496 84.1639 15.6453 83.5452 15.944V22.344H81.7052ZM93.7113 22.488C92.7833 22.488 91.994 22.1627 91.3433 21.512C90.6926 20.8613 90.3673 19.848 90.3673 18.472V18.264C90.3673 16.8133 90.698 15.736 91.3593 15.032C92.0206 14.3173 92.9166 13.96 94.0473 13.96C94.7833 13.96 95.4393 14.1147 96.0153 14.424V10.648H97.8393V22.344H96.2713L96.1113 21.688H96.0473C95.482 22.2213 94.7033 22.488 93.7113 22.488ZM94.3513 21.064C94.9593 21.064 95.514 20.8773 96.0153 20.504V15.816C95.6526 15.528 95.0926 15.384 94.3353 15.384C93.6526 15.384 93.1353 15.592 92.7833 16.008C92.4313 16.424 92.2553 17.1173 92.2553 18.088V18.392C92.2553 19.3627 92.4366 20.0507 92.7993 20.456C93.162 20.8613 93.6793 21.064 94.3513 21.064Z" fill="white" fill-opacity="0.5"/>
</svg>
