<svg width="16" height="18" viewBox="0 0 16 18" fill="none" xmlns="http://www.w3.org/2000/svg">
<g clip-path="url(#clip0_234_946)">
<path d="M7.75038 3.94615C8.49921 3.94615 9.43788 3.42435 9.99686 2.72861C10.5031 2.09809 10.8723 1.21755 10.8723 0.336999C10.8723 0.217418 10.8617 0.0978386 10.8406 0C10.0074 0.0326128 9.00546 0.57616 8.40428 1.30451C7.92968 1.85893 7.49725 2.72861 7.49725 3.62003C7.49725 3.75048 7.51835 3.88093 7.52889 3.92441C7.58163 3.93528 7.666 3.94615 7.75038 3.94615ZM5.11366 17.1C6.13671 17.1 6.59022 16.3934 7.86639 16.3934C9.16366 16.3934 9.44843 17.0783 10.5875 17.0783C11.7055 17.0783 12.4543 16.0129 13.1609 14.9693C13.9519 13.7735 14.2789 12.5994 14.3 12.5451C14.2262 12.5233 12.0851 11.621 12.0851 9.08811C12.0851 6.89218 13.7726 5.90292 13.8676 5.82683C12.7496 4.17444 11.0516 4.13096 10.5875 4.13096C9.33241 4.13096 8.30936 4.91367 7.666 4.91367C6.96991 4.91367 6.05233 4.17444 4.966 4.17444C2.89882 4.17444 0.799988 5.93554 0.799988 9.26205C0.799988 11.3275 1.58046 13.5126 2.54022 14.9258C3.36288 16.1216 4.08007 17.1 5.11366 17.1Z" fill="white"/>
</g>
<defs>
<clipPath id="clip0_234_946">
<rect width="14.4" height="18" fill="white" transform="translate(0.799988)"/>
</clipPath>
</defs>
</svg>
