<svg width="32" height="32" viewBox="0 0 32 32" fill="none" xmlns="http://www.w3.org/2000/svg">
<path d="M25.2308 8.6087H22.0323L20.4596 6.38696C20.3754 6.26799 20.2613 6.17044 20.1274 6.10294C19.9936 6.03544 19.8441 6.00009 19.6923 6H12.3077C12.1559 6.00009 12.0064 6.03544 11.8726 6.10294C11.7387 6.17044 11.6246 6.26799 11.5404 6.38696L9.96654 8.6087H6.76923C6.03479 8.6087 5.33042 8.88354 4.81109 9.37276C4.29176 9.86199 4 10.5255 4 11.2174V23.3913C4 24.0832 4.29176 24.7467 4.81109 25.2359C5.33042 25.7252 6.03479 26 6.76923 26H25.2308C25.9652 26 26.6696 25.7252 27.1889 25.2359C27.7082 24.7467 28 24.0832 28 23.3913V11.2174C28 10.5255 27.7082 9.86199 27.1889 9.37276C26.6696 8.88354 25.9652 8.6087 25.2308 8.6087ZM26.1538 23.3913C26.1538 23.6219 26.0566 23.8431 25.8835 24.0062C25.7104 24.1693 25.4756 24.2609 25.2308 24.2609H6.76923C6.52442 24.2609 6.28963 24.1693 6.11652 24.0062C5.94341 23.8431 5.84615 23.6219 5.84615 23.3913V11.2174C5.84615 10.9868 5.94341 10.7656 6.11652 10.6025C6.28963 10.4394 6.52442 10.3478 6.76923 10.3478H10.4615C10.6135 10.3479 10.7632 10.3126 10.8973 10.2451C11.0313 10.1776 11.1456 10.08 11.23 9.96087L12.8015 7.73913H19.1973L20.77 9.96087C20.8544 10.08 20.9687 10.1776 21.1027 10.2451C21.2368 10.3126 21.3865 10.3479 21.5385 10.3478H25.2308C25.4756 10.3478 25.7104 10.4394 25.8835 10.6025C26.0566 10.7656 26.1538 10.9868 26.1538 11.2174V23.3913ZM16 12.087C14.9959 12.087 14.0143 12.3675 13.1794 12.893C12.3445 13.4185 11.6938 14.1654 11.3095 15.0393C10.9253 15.9132 10.8247 16.8749 11.0206 17.8026C11.2165 18.7303 11.7001 19.5825 12.4101 20.2514C13.1201 20.9202 14.0247 21.3757 15.0095 21.5603C15.9944 21.7448 17.0152 21.6501 17.9429 21.2881C18.8705 20.9261 19.6634 20.3131 20.2213 19.5266C20.7792 18.7401 21.0769 17.8155 21.0769 16.8696C21.0754 15.6016 20.54 14.3859 19.5882 13.4893C18.6365 12.5927 17.346 12.0884 16 12.087ZM16 19.913C15.361 19.913 14.7364 19.7345 14.2051 19.4001C13.6738 19.0657 13.2597 18.5904 13.0152 18.0343C12.7706 17.4781 12.7066 16.8662 12.8313 16.2758C12.956 15.6854 13.2637 15.1431 13.7155 14.7175C14.1673 14.2919 14.743 14.002 15.3697 13.8846C15.9964 13.7671 16.646 13.8274 17.2364 14.0578C17.8267 14.2881 18.3313 14.6782 18.6863 15.1787C19.0413 15.6792 19.2308 16.2676 19.2308 16.8696C19.2308 17.6767 18.8904 18.4509 18.2845 19.0216C17.6786 19.5924 16.8569 19.913 16 19.913Z" fill="#151515"/>
</svg>
