<svg width="28" height="28" viewBox="0 0 28 28" fill="none" xmlns="http://www.w3.org/2000/svg">
<path d="M14 5.25C12.2694 5.25 10.5777 5.76318 9.13876 6.72464C7.69983 7.6861 6.57832 9.05267 5.91606 10.6515C5.25379 12.2504 5.08051 14.0097 5.41813 15.707C5.75575 17.4044 6.58911 18.9635 7.81282 20.1872C9.03653 21.4109 10.5956 22.2442 12.293 22.5819C13.9903 22.9195 15.7496 22.7462 17.3485 22.0839C18.9473 21.4217 20.3139 20.3002 21.2754 18.8612C22.2368 17.4223 22.75 15.7306 22.75 14C22.7475 11.6801 21.8249 9.45593 20.1845 7.81552C18.5441 6.17511 16.3199 5.25245 14 5.25ZM14 21.4038C12.5357 21.4038 11.1042 20.9696 9.88665 20.1561C8.66909 19.3425 7.72012 18.1862 7.15974 16.8333C6.59936 15.4805 6.45274 13.9918 6.73842 12.5556C7.0241 11.1194 7.72925 9.80014 8.76469 8.76469C9.80014 7.72924 11.1194 7.0241 12.5556 6.73842C13.9918 6.45274 15.4805 6.59936 16.8333 7.15974C18.1862 7.72012 19.3425 8.66909 20.1561 9.88664C20.9696 11.1042 21.4038 12.5357 21.4038 14C21.4016 15.9629 20.6209 17.8448 19.2329 19.2328C17.8448 20.6209 15.9629 21.4016 14 21.4038ZM19.3846 14C19.3846 14.1785 19.3137 14.3497 19.1875 14.4759C19.0612 14.6022 18.89 14.6731 18.7115 14.6731H14C13.8215 14.6731 13.6503 14.6022 13.5241 14.4759C13.3978 14.3497 13.3269 14.1785 13.3269 14V9.28846C13.3269 9.10995 13.3978 8.93875 13.5241 8.81252C13.6503 8.6863 13.8215 8.61538 14 8.61538C14.1785 8.61538 14.3497 8.6863 14.4759 8.81252C14.6022 8.93875 14.6731 9.10995 14.6731 9.28846V13.3269H18.7115C18.89 13.3269 19.0612 13.3978 19.1875 13.5241C19.3137 13.6503 19.3846 13.8215 19.3846 14Z" fill="#262627"/>
</svg>
