<svg width="32" height="32" viewBox="0 0 32 32" fill="none" xmlns="http://www.w3.org/2000/svg">
<path d="M16 6C14.0222 6 12.0888 6.58649 10.4443 7.6853C8.79981 8.78412 7.51809 10.3459 6.76121 12.1732C6.00433 14.0004 5.8063 16.0111 6.19215 17.9509C6.578 19.8907 7.53041 21.6725 8.92894 23.0711C10.3275 24.4696 12.1093 25.422 14.0491 25.8078C15.9889 26.1937 17.9996 25.9957 19.8268 25.2388C21.6541 24.4819 23.2159 23.2002 24.3147 21.5557C25.4135 19.9112 26 17.9778 26 16C25.9972 13.3487 24.9427 10.8068 23.068 8.93202C21.1932 7.05727 18.6513 6.0028 16 6ZM16 24.4615C14.3265 24.4615 12.6905 23.9653 11.299 23.0355C9.90753 22.1057 8.823 20.7842 8.18256 19.2381C7.54213 17.6919 7.37456 15.9906 7.70105 14.3492C8.02754 12.7079 8.83343 11.2002 10.0168 10.0168C11.2002 8.83342 12.7079 8.02754 14.3492 7.70105C15.9906 7.37456 17.6919 7.54212 19.2381 8.18256C20.7842 8.82299 22.1057 9.90753 23.0355 11.299C23.9653 12.6905 24.4615 14.3265 24.4615 16C24.459 18.2434 23.5667 20.3941 21.9804 21.9804C20.3941 23.5667 18.2434 24.459 16 24.4615ZM22.1538 16C22.1538 16.204 22.0728 16.3997 21.9285 16.5439C21.7843 16.6882 21.5886 16.7692 21.3846 16.7692H16C15.796 16.7692 15.6003 16.6882 15.4561 16.5439C15.3118 16.3997 15.2308 16.204 15.2308 16V10.6154C15.2308 10.4114 15.3118 10.2157 15.4561 10.0715C15.6003 9.9272 15.796 9.84615 16 9.84615C16.204 9.84615 16.3997 9.9272 16.5439 10.0715C16.6882 10.2157 16.7692 10.4114 16.7692 10.6154V15.2308H21.3846C21.5886 15.2308 21.7843 15.3118 21.9285 15.4561C22.0728 15.6003 22.1538 15.796 22.1538 16Z" fill="#151515"/>
</svg>
