<svg width="20" height="20" viewBox="0 0 20 20" fill="none" xmlns="http://www.w3.org/2000/svg">
<path d="M13.5938 5H11.25C10.8203 5 10.4688 5.42188 10.4688 5.9375C10.4688 6.45312 10.8203 6.875 11.25 6.875H13.5938C14.8828 6.875 15.9375 8.14062 15.9375 9.6875C15.9375 11.2344 14.8828 12.5 13.5938 12.5H11.25C10.8203 12.5 10.4688 12.9219 10.4688 13.4375C10.4688 13.9531 10.8203 14.375 11.25 14.375H13.5938C15.75 14.375 17.5 12.275 17.5 9.6875C17.5 7.1 15.75 5 13.5938 5ZM6.5625 9.6875C6.5625 10.2031 6.91406 10.625 7.34375 10.625H12.0312C12.4609 10.625 12.8125 10.2031 12.8125 9.6875C12.8125 9.17188 12.4609 8.75 12.0312 8.75H7.34375C6.91406 8.75 6.5625 9.17188 6.5625 9.6875ZM8.125 12.5H5.78125C4.49219 12.5 3.4375 11.2344 3.4375 9.6875C3.4375 8.14062 4.49219 6.875 5.78125 6.875H8.125C8.55469 6.875 8.90625 6.45312 8.90625 5.9375C8.90625 5.42188 8.55469 5 8.125 5H5.78125C3.625 5 1.875 7.1 1.875 9.6875C1.875 12.275 3.625 14.375 5.78125 14.375H8.125C8.55469 14.375 8.90625 13.9531 8.90625 13.4375C8.90625 12.9219 8.55469 12.5 8.125 12.5Z" fill="#7F7F7F"/>
</svg>
