<svg width="24" height="24" viewBox="0 0 24 24" fill="none" xmlns="http://www.w3.org/2000/svg">
<path fill-rule="evenodd" clip-rule="evenodd" d="M7.70853 3.8252C8.08132 3.8252 8.38353 4.1274 8.38353 4.5002V5.17519H15.9502V4.5002C15.9502 4.1274 16.2524 3.8252 16.6252 3.8252C16.998 3.8252 17.3002 4.1274 17.3002 4.5002V5.19955C18.7865 5.38996 19.9252 6.67302 19.9252 8.21269V17.8877C19.9252 19.5573 18.5862 20.9252 16.9169 20.9252H7.58353C5.91419 20.9252 4.5752 19.5573 4.5752 17.8877V8.21269C4.5752 6.73109 5.62958 5.48712 7.03353 5.22571V4.5002C7.03353 4.1274 7.33574 3.8252 7.70853 3.8252ZM7.69346 6.52519H7.58353C6.67554 6.52519 5.9252 7.27278 5.9252 8.21269V9.03029C5.98839 9.01071 6.05556 9.00017 6.1252 9.00017H18.3752C18.4448 9.00017 18.512 9.01071 18.5752 9.03029V8.21269C18.5752 7.27278 17.8249 6.52519 16.9169 6.52519H7.7236C7.71859 6.5253 7.71357 6.52535 7.70853 6.52535C7.70349 6.52535 7.69847 6.5253 7.69346 6.52519ZM18.5752 10.32C18.512 10.3396 18.4448 10.3502 18.3752 10.3502H6.1252C6.05556 10.3502 5.98839 10.3396 5.9252 10.32V17.8877C5.9252 18.8276 6.67554 19.5752 7.58353 19.5752H16.9169C17.8249 19.5752 18.5752 18.8276 18.5752 17.8877V10.32Z" fill="#583FF5"/>
</svg>
