<svg width="16" height="16" viewBox="0 0 16 16" fill="none" xmlns="http://www.w3.org/2000/svg">
<path d="M11.2503 9.33585C11.108 9.48116 11.0424 9.69109 11.0746 9.89682L11.5593 12.7401C11.6002 12.9811 11.5033 13.2251 11.3116 13.3647C11.1237 13.5095 10.8739 13.5273 10.6692 13.412L8.23947 12.0804C8.15498 12.0331 8.06114 12.0078 7.96508 12.0051L7.81631 12.0053C7.7647 12.0135 7.71418 12.0309 7.66803 12.0575L5.23462 13.4029C5.11433 13.4666 4.97816 13.4894 4.84479 13.4671C4.51988 13.4028 4.30342 13.0771 4.35707 12.7331L4.84893 9.88836C4.88156 9.68079 4.81647 9.46991 4.67447 9.32272L2.69453 7.30256C2.52895 7.13345 2.4716 6.87919 2.54762 6.64959C2.62145 6.42057 2.80938 6.25323 3.03614 6.21532L5.76492 5.7944C5.97245 5.77154 6.15486 5.63831 6.24841 5.44163L7.45362 2.84437C7.48223 2.78653 7.51907 2.73329 7.56359 2.68813L7.61304 2.6476C7.63887 2.6175 7.66855 2.5926 7.70151 2.57232L7.76137 2.5491L7.85474 2.5085L8.08585 2.50815C8.29223 2.53038 8.47378 2.66016 8.56853 2.85424L9.78367 5.43627C9.87128 5.62515 10.0419 5.75611 10.2389 5.7876L12.9667 6.20023C13.1972 6.23457 13.3897 6.40191 13.4658 6.63301C13.5374 6.8647 13.4751 7.11913 13.3058 7.28645L11.2503 9.33585Z" fill="#FFBC11"/>
<path fill-rule="evenodd" clip-rule="evenodd" d="M10.612 8.70312L12.3088 7.01131L10.0982 6.67693L10.0945 6.67633C9.59139 6.59592 9.17661 6.26623 8.96834 5.81955L8.00956 3.78227L7.06281 5.82256L7.06096 5.82644C6.84348 6.28368 6.40882 6.61999 5.88484 6.68618L3.68488 7.02553L5.32298 8.6969C5.66595 9.05238 5.8131 9.54803 5.738 10.0258L5.73693 10.0326L5.34209 12.3162L7.2288 11.2732C7.37174 11.1921 7.52466 11.1406 7.6779 11.1164L7.74721 11.1054L7.97965 11.105L7.99318 11.1054C8.22945 11.1122 8.46384 11.1743 8.67629 11.2923L10.5767 12.3338L10.1863 10.0443L10.1854 10.0381C10.1108 9.56082 10.2599 9.06256 10.6083 8.70691L10.612 8.70312ZM7.66803 12.0575L5.23462 13.4029C5.11433 13.4666 4.97816 13.4894 4.84479 13.4671C4.51988 13.4028 4.30342 13.0771 4.35707 12.7331L4.84893 9.88836C4.88156 9.68079 4.81647 9.46991 4.67447 9.32272L2.69453 7.30256C2.52895 7.13345 2.4716 6.87919 2.54762 6.64959C2.62145 6.42057 2.80938 6.25323 3.03614 6.21532L5.76492 5.7944C5.97245 5.77154 6.15486 5.63831 6.24841 5.44163L7.45362 2.84437C7.48223 2.78653 7.51907 2.73329 7.56359 2.68813L7.61304 2.6476C7.63887 2.6175 7.66855 2.5926 7.70151 2.57232L7.76137 2.5491L7.85474 2.5085L8.08585 2.50815C8.29223 2.53038 8.47378 2.66016 8.56853 2.85424L9.78367 5.43627C9.87128 5.62515 10.0419 5.75611 10.2389 5.7876L12.9667 6.20023C13.1972 6.23457 13.3897 6.40191 13.4658 6.63301C13.5374 6.8647 13.4751 7.11913 13.3058 7.28645L11.2503 9.33585C11.108 9.48116 11.0424 9.69109 11.0746 9.89682L11.5593 12.7401C11.6002 12.9811 11.5033 13.2251 11.3116 13.3647C11.1237 13.5095 10.8739 13.5273 10.6692 13.412L8.23947 12.0804C8.15498 12.0331 8.06114 12.0078 7.96508 12.0051L7.81631 12.0053C7.7647 12.0135 7.71418 12.0309 7.66803 12.0575Z" fill="#FFBC11"/>
</svg>
