<svg width="20" height="20" viewBox="0 0 20 20" fill="none" xmlns="http://www.w3.org/2000/svg">
<path fill-rule="evenodd" clip-rule="evenodd" d="M10.4496 3.93299C10.3324 3.81582 10.1734 3.75 10.0077 3.75C9.84195 3.75 9.68301 3.81582 9.56581 3.93299L5.19081 8.30804L3.94081 9.55805C3.88111 9.61571 3.8335 9.68467 3.80074 9.76093C3.76799 9.83718 3.75074 9.91919 3.75002 10.0022C3.7493 10.0852 3.76512 10.1675 3.79654 10.2443C3.82797 10.3211 3.87438 10.3909 3.93306 10.4496C3.99174 10.5082 4.06152 10.5547 4.13833 10.5861C4.21514 10.6175 4.29744 10.6333 4.38043 10.6326C4.46342 10.6319 4.54543 10.6146 4.62168 10.5819C4.69794 10.5491 4.7669 10.5015 4.82456 10.4418L5.00768 10.2587V14.375C5.00768 14.8723 5.20522 15.3492 5.55685 15.7008C5.90849 16.0525 6.3854 16.25 6.88268 16.25H13.1327C13.63 16.25 14.1069 16.0525 14.4585 15.7008C14.8101 15.3492 15.0077 14.8723 15.0077 14.375V10.2587L15.1908 10.4418C15.3087 10.5557 15.4666 10.6187 15.6304 10.6172C15.7943 10.6158 15.9511 10.5501 16.0669 10.4342C16.1828 10.3183 16.2486 10.1616 16.25 9.99768C16.2514 9.83381 16.1884 9.67593 16.0746 9.55805L10.4496 3.93299Z" fill="#7F7F7F"/>
</svg>
