<svg width="32" height="32" viewBox="0 0 32 32" fill="none" xmlns="http://www.w3.org/2000/svg">
<circle cx="16" cy="16" r="16" fill="#583FF5"/>
<path fill-rule="evenodd" clip-rule="evenodd" d="M16.6652 8.18756C18.021 8.18185 19.3505 8.56359 20.4967 9.28789C23.8192 11.3868 24.8108 15.7821 22.7112 19.1046C20.6545 22.3598 16.3938 23.3773 13.0974 21.443L11.1287 21.8938L11.1285 21.8938C10.9851 21.9266 10.8357 21.9224 10.6944 21.8816C10.553 21.8407 10.4244 21.7647 10.3205 21.6605C10.2167 21.5563 10.141 21.4274 10.1006 21.2859C10.0603 21.1444 10.0566 20.995 10.0899 20.8517C10.0899 20.8517 10.0899 20.8517 10.0899 20.8517L10.5415 18.9059C9.9033 17.8186 9.56468 16.5798 9.56251 15.3161C9.55555 11.3861 12.7355 8.19459 16.6652 8.18756ZM19.8957 10.2389C18.9306 9.62905 17.811 9.30763 16.6693 9.31256L16.6678 9.31256C13.3592 9.31814 10.6816 12.0051 10.6875 15.3141L10.6875 15.3142C10.6895 16.4453 11.0116 17.5528 11.6167 18.5084C11.6972 18.6357 11.7234 18.7899 11.6893 18.9365L11.2788 20.7053L13.0691 20.2954C13.2151 20.2619 13.3685 20.2881 13.4951 20.3681C16.2924 22.1355 19.9928 21.3009 21.7602 18.5037L21.7602 18.5037C23.5278 15.7064 22.693 12.006 19.8958 10.239L19.8957 10.2389Z" fill="white"/>
</svg>
