<svg width="20" height="20" viewBox="0 0 20 20" fill="none" xmlns="http://www.w3.org/2000/svg">
<path fill-rule="evenodd" clip-rule="evenodd" d="M10 4.3125C6.85888 4.3125 4.3125 6.85888 4.3125 10C4.3125 13.1411 6.85888 15.6875 10 15.6875C13.1411 15.6875 15.6875 13.1411 15.6875 10C15.6875 6.85888 13.1411 4.3125 10 4.3125ZM3.1875 10C3.1875 6.23756 6.23756 3.1875 10 3.1875C13.7624 3.1875 16.8125 6.23756 16.8125 10C16.8125 13.7624 13.7624 16.8125 10 16.8125C6.23756 16.8125 3.1875 13.7624 3.1875 10ZM7.5625 8.125C7.5625 7.81434 7.81434 7.5625 8.125 7.5625H8.18726C8.49792 7.5625 8.74976 7.81434 8.74976 8.125V8.17505C8.74976 8.48571 8.49792 8.73755 8.18726 8.73755H8.125C7.81434 8.73755 7.5625 8.48571 7.5625 8.17505V8.125ZM11.3125 8.125C11.3125 7.81434 11.5643 7.5625 11.875 7.5625H11.9303C12.241 7.5625 12.4928 7.81434 12.4928 8.125V8.17505C12.4928 8.48571 12.241 8.73755 11.9303 8.73755H11.875C11.5643 8.73755 11.3125 8.48571 11.3125 8.17505V8.125ZM7.53724 11.4222C7.80139 11.2587 8.14808 11.3403 8.31158 11.6044C8.67175 12.1863 9.29687 12.5625 10 12.5625C10.7031 12.5625 11.3282 12.1863 11.6884 11.6044C11.8519 11.3403 12.1986 11.2587 12.4628 11.4222C12.7269 11.5857 12.8085 11.9324 12.645 12.1966C12.0938 13.087 11.1187 13.6875 10 13.6875C8.88132 13.6875 7.90623 13.087 7.35502 12.1966C7.19151 11.9324 7.27309 11.5857 7.53724 11.4222Z" fill="#7F7F7F"/>
</svg>
