<svg width="32" height="32" viewBox="0 0 32 32" fill="none" xmlns="http://www.w3.org/2000/svg">
<path d="M24.4242 9.07692H20.6364V8.30769C20.6364 7.69565 20.3969 7.10868 19.9707 6.67591C19.5445 6.24313 18.9664 6 18.3636 6H13.8182C13.2154 6 12.6373 6.24313 12.2111 6.67591C11.7849 7.10868 11.5455 7.69565 11.5455 8.30769V9.07692H7.75758C7.55665 9.07692 7.36396 9.15797 7.22189 9.30223C7.07982 9.44648 7 9.64214 7 9.84615C7 10.0502 7.07982 10.2458 7.22189 10.3901C7.36396 10.5343 7.55665 10.6154 7.75758 10.6154H8.51515V24.4615C8.51515 24.8696 8.67478 25.2609 8.95893 25.5494C9.24308 25.8379 9.62846 26 10.0303 26H22.1515C22.5534 26 22.9387 25.8379 23.2229 25.5494C23.507 25.2609 23.6667 24.8696 23.6667 24.4615V10.6154H24.4242C24.6252 10.6154 24.8179 10.5343 24.9599 10.3901C25.102 10.2458 25.1818 10.0502 25.1818 9.84615C25.1818 9.64214 25.102 9.44648 24.9599 9.30223C24.8179 9.15797 24.6252 9.07692 24.4242 9.07692ZM13.0606 8.30769C13.0606 8.10368 13.1404 7.90802 13.2825 7.76376C13.4246 7.61951 13.6173 7.53846 13.8182 7.53846H18.3636C18.5646 7.53846 18.7573 7.61951 18.8993 7.76376C19.0414 7.90802 19.1212 8.10368 19.1212 8.30769V9.07692H13.0606V8.30769ZM22.1515 24.4615H10.0303V10.6154H22.1515V24.4615ZM14.5758 14.4615V20.6154C14.5758 20.8194 14.4959 21.0151 14.3539 21.1593C14.2118 21.3036 14.0191 21.3846 13.8182 21.3846C13.6173 21.3846 13.4246 21.3036 13.2825 21.1593C13.1404 21.0151 13.0606 20.8194 13.0606 20.6154V14.4615C13.0606 14.2575 13.1404 14.0619 13.2825 13.9176C13.4246 13.7734 13.6173 13.6923 13.8182 13.6923C14.0191 13.6923 14.2118 13.7734 14.3539 13.9176C14.4959 14.0619 14.5758 14.2575 14.5758 14.4615ZM19.1212 14.4615V20.6154C19.1212 20.8194 19.0414 21.0151 18.8993 21.1593C18.7573 21.3036 18.5646 21.3846 18.3636 21.3846C18.1627 21.3846 17.97 21.3036 17.8279 21.1593C17.6859 21.0151 17.6061 20.8194 17.6061 20.6154V14.4615C17.6061 14.2575 17.6859 14.0619 17.8279 13.9176C17.97 13.7734 18.1627 13.6923 18.3636 13.6923C18.5646 13.6923 18.7573 13.7734 18.8993 13.9176C19.0414 14.0619 19.1212 14.2575 19.1212 14.4615Z" fill="#151515"/>
</svg>
