<svg width="28" height="28" viewBox="0 0 28 28" fill="none" xmlns="http://www.w3.org/2000/svg">
<path d="M22.4242 7.07692H18.6364V6.30769C18.6364 5.69565 18.3969 5.10868 17.9707 4.67591C17.5445 4.24313 16.9664 4 16.3636 4H11.8182C11.2154 4 10.6373 4.24313 10.2111 4.67591C9.7849 5.10868 9.54545 5.69565 9.54545 6.30769V7.07692H5.75758C5.55665 7.07692 5.36396 7.15797 5.22189 7.30223C5.07982 7.44648 5 7.64214 5 7.84615C5 8.05017 5.07982 8.24582 5.22189 8.39008C5.36396 8.53434 5.55665 8.61538 5.75758 8.61538H6.51515V22.4615C6.51515 22.8696 6.67478 23.2609 6.95893 23.5494C7.24308 23.8379 7.62846 24 8.0303 24H20.1515C20.5534 24 20.9387 23.8379 21.2229 23.5494C21.507 23.2609 21.6667 22.8696 21.6667 22.4615V8.61538H22.4242C22.6252 8.61538 22.8179 8.53434 22.9599 8.39008C23.102 8.24582 23.1818 8.05017 23.1818 7.84615C23.1818 7.64214 23.102 7.44648 22.9599 7.30223C22.8179 7.15797 22.6252 7.07692 22.4242 7.07692ZM11.0606 6.30769C11.0606 6.10368 11.1404 5.90802 11.2825 5.76376C11.4246 5.61951 11.6173 5.53846 11.8182 5.53846H16.3636C16.5646 5.53846 16.7573 5.61951 16.8993 5.76376C17.0414 5.90802 17.1212 6.10368 17.1212 6.30769V7.07692H11.0606V6.30769ZM20.1515 22.4615H8.0303V8.61538H20.1515V22.4615ZM12.5758 12.4615V18.6154C12.5758 18.8194 12.4959 19.0151 12.3539 19.1593C12.2118 19.3036 12.0191 19.3846 11.8182 19.3846C11.6173 19.3846 11.4246 19.3036 11.2825 19.1593C11.1404 19.0151 11.0606 18.8194 11.0606 18.6154V12.4615C11.0606 12.2575 11.1404 12.0619 11.2825 11.9176C11.4246 11.7734 11.6173 11.6923 11.8182 11.6923C12.0191 11.6923 12.2118 11.7734 12.3539 11.9176C12.4959 12.0619 12.5758 12.2575 12.5758 12.4615ZM17.1212 12.4615V18.6154C17.1212 18.8194 17.0414 19.0151 16.8993 19.1593C16.7573 19.3036 16.5646 19.3846 16.3636 19.3846C16.1627 19.3846 15.97 19.3036 15.8279 19.1593C15.6859 19.0151 15.6061 18.8194 15.6061 18.6154V12.4615C15.6061 12.2575 15.6859 12.0619 15.8279 11.9176C15.97 11.7734 16.1627 11.6923 16.3636 11.6923C16.5646 11.6923 16.7573 11.7734 16.8993 11.9176C17.0414 12.0619 17.1212 12.2575 17.1212 12.4615Z" fill="#262627"/>
</svg>
