<svg width="26" height="26" viewBox="0 0 26 26" fill="none" xmlns="http://www.w3.org/2000/svg">
<path d="M20.3143 16.0055C19.994 16.3325 19.8465 16.8048 19.9188 17.2677L21.0094 23.6651C21.1014 24.2073 20.8834 24.7565 20.452 25.0706C20.0292 25.3963 19.4672 25.4362 19.0068 25.1768L13.5398 22.1807C13.3497 22.0743 13.1385 22.0174 12.9224 22.0113L12.5877 22.0118C12.4716 22.0302 12.3579 22.0693 12.2541 22.1293L6.77887 25.1564C6.50821 25.2998 6.20184 25.351 5.90175 25.3008C5.17072 25.1562 4.68368 24.4234 4.80439 23.6494L5.91106 17.2487C5.98448 16.7817 5.83804 16.3072 5.51852 15.976L1.06368 11.4306C0.691107 11.0501 0.562078 10.4781 0.733125 9.96146C0.89923 9.44617 1.32208 9.06965 1.8323 8.98434L7.97205 8.03728C8.43899 7.98584 8.84941 7.68608 9.05989 7.24356L11.7716 1.39972C11.836 1.26956 11.9189 1.14978 12.019 1.04818L12.1303 0.95697C12.1884 0.88925 12.2552 0.833222 12.3294 0.787589L12.4641 0.73536L12.6741 0.643998L13.1941 0.643208C13.6585 0.693227 14.067 0.985242 14.2802 1.42192L17.0142 7.23147C17.2114 7.65647 17.5951 7.95113 18.0385 8.02199L24.1761 8.9504C24.6947 9.02765 25.1278 9.40417 25.2989 9.92415C25.4601 10.4454 25.3199 11.0179 24.939 11.3944L20.3143 16.0055Z" fill="#D9D9D9"/>
<path fill-rule="evenodd" clip-rule="evenodd" d="M18.8779 14.5819L22.6957 10.7753L17.722 10.023L17.7137 10.0216C16.5816 9.84069 15.6483 9.0989 15.1797 8.09387L13.0225 3.50999L10.8923 8.10064L10.8881 8.10937C10.3988 9.13816 9.42083 9.89487 8.24187 10.0438L3.29196 10.8073L6.97767 14.5679C7.74937 15.3677 8.08046 16.483 7.91148 17.5579L7.90907 17.5732L7.02068 22.7114L11.2658 20.3645C11.5874 20.1822 11.9315 20.0663 12.2762 20.0117L12.4322 19.987L12.9552 19.9862L12.9856 19.9871C13.5172 20.0023 14.0446 20.1422 14.5226 20.4076L18.7985 22.7509L17.9202 17.5994L17.9181 17.5856C17.7502 16.5117 18.0857 15.3906 18.8696 14.5904L18.8779 14.5819ZM12.2541 22.1293L6.77887 25.1564C6.50821 25.2998 6.20184 25.351 5.90175 25.3008C5.17072 25.1562 4.68368 24.4234 4.80439 23.6494L5.91106 17.2487C5.98448 16.7817 5.83804 16.3072 5.51852 15.976L1.06368 11.4306C0.691107 11.0501 0.562078 10.4781 0.733125 9.96146C0.89923 9.44617 1.32208 9.06965 1.8323 8.98434L7.97205 8.03728C8.43899 7.98584 8.84941 7.68608 9.05989 7.24356L11.7716 1.39972C11.836 1.26956 11.9189 1.14978 12.019 1.04818L12.1303 0.95697C12.1884 0.88925 12.2552 0.833222 12.3294 0.787589L12.4641 0.73536L12.6741 0.643998L13.1941 0.643208C13.6585 0.693227 14.067 0.985242 14.2802 1.42192L17.0142 7.23147C17.2114 7.65647 17.5951 7.95113 18.0385 8.02199L24.1761 8.9504C24.6947 9.02765 25.1278 9.40417 25.2989 9.92415C25.4601 10.4454 25.3199 11.0179 24.939 11.3944L20.3143 16.0055C19.994 16.3325 19.8465 16.8048 19.9188 17.2677L21.0094 23.6651C21.1014 24.2073 20.8834 24.7565 20.452 25.0706C20.0292 25.3963 19.4672 25.4362 19.0068 25.1768L13.5398 22.1807C13.3497 22.0743 13.1385 22.0174 12.9224 22.0113L12.5877 22.0118C12.4716 22.0302 12.3579 22.0693 12.2541 22.1293Z" fill="#D9D9D9"/>
</svg>
