<svg width="20" height="20" viewBox="0 0 20 20" fill="none" xmlns="http://www.w3.org/2000/svg">
<path fill-rule="evenodd" clip-rule="evenodd" d="M10 4.3125C6.85888 4.3125 4.3125 6.85888 4.3125 10C4.3125 13.1411 6.85888 15.6875 10 15.6875C13.1411 15.6875 15.6875 13.1411 15.6875 10C15.6875 6.85888 13.1411 4.3125 10 4.3125ZM3.1875 10C3.1875 6.23756 6.23756 3.1875 10 3.1875C13.7624 3.1875 16.8125 6.23756 16.8125 10C16.8125 13.7624 13.7624 16.8125 10 16.8125C6.23756 16.8125 3.1875 13.7624 3.1875 10ZM10 7.09375C10.3107 7.09375 10.5625 7.34559 10.5625 7.65625V7.68372C10.5625 7.99438 10.3107 8.24622 10 8.24622C9.68934 8.24622 9.4375 7.99438 9.4375 7.68372V7.65625C9.4375 7.34559 9.68934 7.09375 10 7.09375ZM10 9.4375C10.3107 9.4375 10.5625 9.68934 10.5625 10V13.125C10.5625 13.4357 10.3107 13.6875 10 13.6875C9.68934 13.6875 9.4375 13.4357 9.4375 13.125L9.4375 10C9.4375 9.68934 9.68934 9.4375 10 9.4375Z" fill="#FF1305"/>
</svg>
