<svg width="32" height="32" viewBox="0 0 32 32" fill="none" xmlns="http://www.w3.org/2000/svg">
<path d="M7.5527 21.6427C7.46824 21.7272 7.36797 21.7942 7.25762 21.8399C7.14727 21.8856 7.029 21.9091 6.90955 21.9091C6.79011 21.9091 6.67183 21.8856 6.56148 21.8399C6.45113 21.7942 6.35086 21.7272 6.2664 21.6427C6.18194 21.5583 6.11495 21.458 6.06924 21.3476C6.02353 21.2373 6 21.119 6 20.9996C6 20.8802 6.02353 20.7619 6.06924 20.6515C6.11495 20.5412 6.18194 20.4409 6.2664 20.3565L15.3569 11.2666C15.4413 11.1821 15.5415 11.115 15.6519 11.0693C15.7622 11.0235 15.8805 11 16 11C16.1195 11 16.2378 11.0235 16.3481 11.0693C16.4585 11.115 16.5587 11.1821 16.6432 11.2666L25.7336 20.3565C25.9042 20.527 26 20.7584 26 20.9996C26 21.2408 25.9042 21.4721 25.7336 21.6427C25.563 21.8133 25.3317 21.9091 25.0904 21.9091C24.8492 21.9091 24.6179 21.8133 24.4473 21.6427L16 13.1948L7.5527 21.6427Z" fill="#151515"/>
</svg>
