<svg width="12" height="12" viewBox="0 0 12 12" fill="none" xmlns="http://www.w3.org/2000/svg">
<circle cx="6" cy="6" r="6" fill="#2E00DA" fill-opacity="0.1"/>
<path fill-rule="evenodd" clip-rule="evenodd" d="M3.34129 3.34129C3.42916 3.25342 3.57162 3.25342 3.65949 3.34129L6.00039 5.68219L8.34129 3.34129C8.42916 3.25342 8.57162 3.25342 8.65949 3.34129C8.74736 3.42916 8.74736 3.57162 8.65949 3.65949L6.31859 6.00039L8.65949 8.34129C8.74736 8.42916 8.74736 8.57162 8.65949 8.65949C8.57162 8.74736 8.42916 8.74736 8.34129 8.65949L6.00039 6.31859L3.65949 8.65949C3.57162 8.74736 3.42916 8.74736 3.34129 8.65949C3.25342 8.57162 3.25342 8.42916 3.34129 8.34129L5.68219 6.00039L3.34129 3.65949C3.25342 3.57162 3.25342 3.42916 3.34129 3.34129Z" fill="#583FF5" fill-opacity="0.1"/>
</svg>
