<svg width="12" height="12" viewBox="0 0 12 12" fill="none" xmlns="http://www.w3.org/2000/svg">
<circle cx="6" cy="6" r="6" fill="#583FF5" fill-opacity="0.1"/>
<path d="M3.83084 3C3.95373 3 4.06967 3.05702 4.14469 3.15437L5.99751 5.55859L7.8505 3.15415C7.92541 3.05694 8.04119 3 8.16391 3C8.4979 3 8.68165 3.38827 8.46988 3.64655L6.54025 6L8.46788 8.35101C8.68045 8.61026 8.49601 9 8.16075 9C8.03978 9 7.92539 8.94486 7.85004 8.85022L5.99751 6.52344L4.14515 8.85C4.06969 8.94478 3.95514 9 3.83399 9C3.49936 9 3.3143 8.61195 3.52492 8.35192L5.42988 6L3.52293 3.64563C3.31311 3.38658 3.49748 3 3.83084 3Z" fill="#583FF5" fill-opacity="0.1"/>
</svg>
