<svg width="32" height="32" viewBox="0 0 32 32" fill="none" xmlns="http://www.w3.org/2000/svg">
<path d="M11.8275 17.2625C14.2677 17.2625 16.2458 15.2843 16.2458 12.8441C16.2458 10.4039 14.2677 8.42578 11.8275 8.42578C9.38734 8.42578 7.40918 10.4039 7.40918 12.8441C7.40918 15.2843 9.38734 17.2625 11.8275 17.2625Z" stroke="#151515" stroke-width="1.5" stroke-linecap="round"/>
<path d="M13.797 6.82544C13.6168 6.95403 13.3393 7.02539 13.0326 7.04963C13.1552 6.76744 13.313 6.52823 13.4932 6.39964C13.6734 6.27106 13.9509 6.19969 14.2576 6.17545C14.135 6.45764 13.9772 6.69685 13.797 6.82544Z" stroke="#151515" stroke-width="2" stroke-linecap="round"/>
<path d="M10.2502 14.8363C10.4245 14.8363 10.5658 14.695 10.5658 14.5207C10.5658 14.3464 10.4245 14.2051 10.2502 14.2051C10.0759 14.2051 9.93457 14.3464 9.93457 14.5207C9.93457 14.695 10.0759 14.8363 10.2502 14.8363Z" fill="#151515"/>
<path d="M13.4058 14.8369C13.9287 14.8369 14.3526 14.413 14.3526 13.8901C14.3526 13.3672 13.9287 12.9434 13.4058 12.9434C12.8829 12.9434 12.459 13.3672 12.459 13.8901C12.459 14.413 12.8829 14.8369 13.4058 14.8369Z" fill="#151515"/>
<path d="M11.5119 16.0999C11.6862 16.0999 11.8275 15.9586 11.8275 15.7843C11.8275 15.61 11.6862 15.4688 11.5119 15.4688C11.3376 15.4688 11.1963 15.61 11.1963 15.7843C11.1963 15.9586 11.3376 16.0999 11.5119 16.0999Z" fill="#151515"/>
<path d="M19.46 26.0855C19.46 22.0925 16.223 18.8555 12.23 18.8555C8.23698 18.8555 5 22.0925 5 26.0855" stroke="#151515" stroke-width="1.5" stroke-linecap="round"/>
<path d="M19.4609 18.0536C21.2356 18.0536 22.6743 16.615 22.6743 14.8403C22.6743 13.0656 21.2356 11.627 19.4609 11.627" stroke="#151515" stroke-width="1.5" stroke-linecap="round"/>
<path d="M26.6909 26.0849C26.6909 22.5355 23.454 19.6582 19.4609 19.6582" stroke="#151515" stroke-width="1.5" stroke-linecap="round"/>
</svg>
